<svg xmlns="http://www.w3.org/2000/svg" xmlns:xlink="http://www.w3.org/1999/xlink" xmlns:fi="http://pattern.flaticon.com/" x="0" y="0" width="1200" height="600" viewBox="0 0 2100 1050"><rect x="0px" y="0px" width="100%" height="100%" opacity="0" fill="#ffffff"/><defs><g transform="matrix(0.0390625 0 0 0.0390625 77.5 340)" id="L1_54"><g><path d="m356 207 10 202h35l16-202z" fill="#d5e4e6"/><g fill="#913b35"><path d="m410.885 284.198 6.115-77.198h-61l3.795 76.656c8.484 3.117 18.073 5.344 28.205 5.344 7.681 0 15.472-1.912 22.885-4.802z"/><path d="m378 276-1 130h12l8-129z"/></g></g><g><path d="m147 174 237 7v51l-240 6z" fill="#d5e4e6"/><g fill="#913b35"><path d="m259.922 177.335-112.922-3.335-3 64 106.152-2.654z"/><path d="m238 195h148v15l-152 12z"/></g></g><g><circle cx="386" cy="207" r="47" fill="#f4b666"/><circle cx="386" cy="207" r="14" fill="#913b35"/></g><g><path d="m15 99 477-3-4-78-469 4z" fill="#d5e4e6"/><path d="m227.431 97.664-1.431-48.664-83-8-6.359 57.235z" fill="#913b35"/><path d="m489.743 51.987-1.743-33.987-469 4-2.064 39.726z" fill="#913b35"/><path d="m0 32 510-4-1-28-508 4z" fill="#faf1fa"/><path d="m3 112 509-6-2-27-507 9z" fill="#faf1fa"/><path d="m135.284 110.441 92.491-1.091-.893-30.35-88.838 6.603z" fill="#913b35"/></g><g><path d="m106 50-1 200 70-1 4.409-146.232-2.527-5.497 2.837-4.795 1.281-42.476z" fill="#f4b666"/><g fill="#913b35"><ellipse cx="142px" cy="205px" rx="16px" ry="15px"/><path d="m179.719 92.476-15.719.524-7-17h-30l-10 18h-11.22l-.055 11h18.275l9-17h17l6 16 23.409-1.232z"/></g></g><g><g><path d="m372 415 1 33-19 13 16 51h25l18-54-19-11v-33z" fill="#faf1fa"/><path d="m372.736 439.281 21.264-1.302v-23.979l-22 1z" fill="#913b35"/><path d="m365.804 498.624 4.196 13.376h25l4.728-14.184z" fill="#d5e4e6"/></g><g><path d="m345 367 4 52 69-1 7-50z" fill="#f4b666"/><path d="m421.016 396.454 1.585-11.319-76.147.77.983 12.779z" fill="#913b35"/></g></g></g><g transform="matrix(0.0390625 0 0 0.0390625 252.5 340)" id="L1_55"><g><g><path d="m159 25 181 24-4 44-186-15z" fill="#d5e4e6"/><path d="m314 59-76.465-7.965 6.25-14.793-84.785-11.242-9 53 73.632 5.938 6.027-14.265 82.341 3.327z" fill="#913b35"/></g><g><path d="m293 293-190-138-47 46 163 156z" fill="#d5e4e6"/><path d="m258 309-116.138-90.428 21.11-20.013-59.972-43.559-47 46 51.952 49.721 17.918-16.988 108.13 99.267z" fill="#913b35"/></g><g><path d="m164 468h176l-18-199-138 3z" fill="#f4b666"/><g fill="#913b35"><ellipse cx="253px" cy="315px" rx="26px" ry="26px"/><path d="m333.124 391.981-33.124 1.019-18-24-59 2-22 26-29.886 1.281-2.121 20.787 47.007-1.068 16-23 40-3 12 22h51.116z"/></g></g><g><path d="m0 188 54 42 149-181-62-49z" fill="#f4b666"/><g fill="#913b35"><circle cx="49" cy="184" r="14"/><ellipse cx="151px" cy="52px" rx="15px" ry="14px"/><path d="m75 139 46-56-9.349-43.868-74.386 99.182z"/></g></g><g><g><g><path d="m466 62 45 9 1 16-43 8z" fill="#faf1fa"/><path d="m489.862 66.772-23.862-4.772 3 33 20.363-3.788z" fill="#913b35"/></g><g><path d="m412 49 56 8 8 45-59 3z" fill="#faf1fa"/><path d="m444.395 53.628-32.395-4.628 5 56 34.298-1.744z" fill="#913b35"/></g><g><path d="m362 31-6 84 80-3-16-68z" fill="#faf1fa"/><path d="m401.368 39.824-39.368-8.824-6 84 35.972-1.349z" fill="#913b35"/></g></g><g><path d="m301 8-14 115 76 3 8-106z" fill="#f4b666"/><path d="m328.191 124.626 16.965.67 6.713-108.576-17.2-2.948z" fill="#913b35"/></g></g></g><path d="m0 512h512l-4-68-503 1z" fill="#faf1fa"/></g><g transform="matrix(0.13671875 0 0 0.13671875 315 140)" id="L1_56"><g><path d="m203 93v-93h12l6 93z" fill="#d5e4e6"/><g fill="#913b35"><path d="m203 25.057 13.542-1.161-.633-9.805-12.909 1.395z"/><path d="m207 87 1-26h5l3 26z"/></g></g><g><g><path d="m373 135 45 5 1 29-46 8z" fill="#d5e4e6"/><path d="m396.417 172.927 22.583-3.927-1-29-23.453-2.606z" fill="#913b35"/></g><g><path d="m412 125v202l48 2-5-200z" fill="#f4b666"/><path d="m459.05 291h-9.05l-4-14h-20l-6 16h-8v10h14l4-15h11l4 13 14.312.477z" fill="#913b35"/></g></g><g><g><path d="m133 144-46 2 1 33 43 1z" fill="#d5e4e6"/><path d="m112.845 144.876-25.845 1.124 1 33 24.349.566z" fill="#913b35"/></g><g><path d="m97 131 4 202-49 3 5-202z" fill="#f4b666"/><path d="m100.324 298.853-10.324 1.147-5-15-20 2-5 15-7.173.598-.275 11.11 13.448-.708 4-16 11-1 3 15 16.537-1.378z" fill="#913b35"/></g></g><path d="m150 199 21 87 161-1 16-94z" fill="#f4b666"/><path d="m162.081 249.048 19.919 11.952h131l24.592-8.853 10.408-61.147-198 8z" fill="#913b35"/><g><path d="m321 82-144 2-54 53v50l58 30 145 1 57-31v-58z" fill="#f4b666"/><path d="m310 104-121 1-41 31-2 40 38 18h134l39-17v-47z" fill="#913b35"/><g fill="#a1ba62"><ellipse cx="207px" cy="149px" rx="22px" ry="22px"/><ellipse cx="299px" cy="149px" rx="18px" ry="21px"/></g></g><path d="m316.076 285.099-4.076-48.099-125-1-1.664 49.911z" fill="#913b35"/><g><path d="m202 250-.525 22.942 4.169 8.538-4.58 9.384-5.064 221.136h113l-11.954-223.706-8.984-7.79 8.119-8.407-1.181-22.097z" fill="#d5e4e6"/><g fill="#913b35"><path d="m201.475 272.942-.411 17.922 95.982-2.571-.865-16.196z"/><path d="m298.168 309.288-97.585 2.59-.369 16.122h98.954z"/><path d="m301.168 365.424-.811-15.173-100.713 2.628-.388 16.937z"/><path d="m307.985 493-.959-17.938-110.2.861-.391 17.077z"/><path d="m304.79 433.204-107.046 2.653-.411 17.924 108.319-4.439z"/><path d="m303.545 409.908-1.006-18.823-103.789.844-.393 17.138z"/></g></g></g><g transform="matrix(0.09765625 0 0 0.09765625 62.5 237.5)" id="L1_57"><g><path d="m35 132 163-98 21 37-151 108z" fill="#d5e4e6"/><path d="m216 58-7-14-90.177 56.582-2.428-17.519-81.395 48.937 33 47 56.128-40.145-3.436-24.791z" fill="#913b35"/></g><g><path d="m292 310-215 6-4 65 216 3z" fill="#d5e4e6"/><path d="m274 362-1-29-128.178 6.104 2.285-25.06-70.107 1.956-4 65 67.915.943 1.98-21.715z" fill="#913b35"/></g><g><g><path d="m235 467h172l-18-175-134 4z" fill="#f4b666"/><g fill="#913b35"><circle cx="323" cy="338" r="24"/><path d="m399.074 389.94-48.074 2.06-10 21h-34l-18-20h-45.345l-2.105 18h31.45l21 22h58l12-23 37.074-.618z"/></g></g><path d="m152 512h338l-7-54-322 3z" fill="#faf1fa"/></g><g><path d="m24 397h65l1-280-68 1z" fill="#f4b666"/><g fill="#913b35"><ellipse cx="56px" cy="151px" rx="14px" ry="13px"/><circle cx="56" cy="348" r="14"/><path d="m23.366 308.581 25.634-15.581v-84l-26.431-11.63z"/></g></g><g><g><path d="m260 79 34-6 12 5 13-10 16 4 10-8 21 5 11-9 17 4 10-8 15 4 9-8 17 6 15-11-11-47-198 19z" fill="#faf1fa"/><path d="m260 79 34-6 12 5 13-10 16 4 10-8 21 5 11-9 17 4 10-8 15 4 9-8 17 6 15-11-4.691-20.044-198.854 28.408z" fill="#d5e4e6"/><path d="m307.397 13.588-56.397 5.412 9 60 34-6 12 5 4.87-3.746z" fill="#913b35"/></g><g><path d="m190 11 7 95 78-14-11-87z" fill="#f4b666"/><path d="m242.396 97.852 15.421-2.768-12.956-88.532-17.907 1.452z" fill="#913b35"/></g></g></g><g transform="matrix(0.17578125 0 0 0.17578125 217.5 217.5)" id="L1_58"><g><path d="m18 21-2 63 474-3-4-56z" fill="#d5e4e6"/><path d="m205.307 82.802-5.307-39.802-93-4-2.142 44.438z" fill="#913b35"/><path d="m488.082 54.144-2.082-29.144-468-4-1.107 34.882z" fill="#913b35"/><path d="m0 30 512 1-1-31-511 3z" fill="#faf1fa"/><path d="m0 78 511-3 1 31h-512z" fill="#faf1fa"/><path d="m103.771 106h104.629l-4.408-33.057-98.842 4.44z" fill="#913b35"/></g><g><g><path d="m320 202 12 187 39-3 16-186z" fill="#d5e4e6"/><g fill="#913b35"><path d="m325.079 281.143c7.425 3.386 16.178 5.857 25.921 5.857 10.327 0 20.314-2.669 29.051-6.221l6.949-80.779-67 2z"/><path d="m342 266 2 127h15l7-128z"/></g></g><g><path d="m102 165 270 11 1 45-271 6z" fill="#d5e4e6"/><g fill="#913b35"><path d="m233.045 170.339-131.045-5.339v62l126.51-2.801z"/><path d="m173 191 174-7v22h-174z"/></g></g><g><path d="m67 46 5 193 67 1 1.487-145.742-3.023-4.787 3.118-4.471.418-41z" fill="#f4b666"/><g fill="#913b35"><circle cx="106" cy="198" r="15"/><path d="m140.582 85h-18.582l-3-16-30 1-5 18-15.895.662.236 9.093 22.659-.755 5-17h16l4 15 24.487-.742z"/></g></g><g><ellipse cx="352px" cy="198px" rx="52px" ry="49px" fill="#f4b666"/><ellipse cx="352px" cy="198px" rx="19px" ry="18px" fill="#913b35"/></g><g><g><path d="m283 428-9 84 169-3-18-85z" fill="#faf1fa"/><path d="m433.975 466.38-8.975-42.38-142 4-4.484 41.854z" fill="#913b35"/><path d="m438.608 488.261-162.431 3.419-2.177 20.32 169-3z" fill="#d5e4e6"/></g><g><path d="m316 376-4 47 82-4-8-46z" fill="#f4b666"/><path d="m330 419 7-23 30-1 9 23z" fill="#913b35"/><path d="m271 437 168-6-3-22-164 8z" fill="#f4b666"/></g></g></g></g><g transform="matrix(0.08356697112321854 0 0 0.08356697112321854 -21.393144607543945 -21.393144607543945)" id="L1_59"><g><g><path d="m363 26 55-4 15-19 58 8 4 27-51 24-22-15-55 8z" fill="#faf1fa"/><path d="m406.854 22.811-43.854 3.189 4 29 41.597-6.05z" fill="#913b35"/></g><path d="m122 36 209-15 4 49-209 25z" fill="#d5e4e6"/><g><path d="m312 276-236-78-30 52 217 110z" fill="#d5e4e6"/><g fill="#913b35"><path d="m208.904 85.083 3.973-16.065 126.123-18.018-2-15-118.346 9.661 4.179-16.898-100.833 7.237 4 59z"/><path d="m172.608 229.93-96.608-31.93-30 52 85.121 43.149 12.587-19.18 137.292 54.031 7-21-127.997-57.862z"/></g></g><g><path d="m213 470 17-195 123-5 24 199z" fill="#f4b666"/><g fill="#913b35"><ellipse cx="293px" cy="322px" rx="27px" ry="26px"/><path d="m368.206 396.08-32.206.92-14-21-51 3-16 23-36.013-.68-1.541 17.68h48.554l14-22 31-2 11 22 48.527-1.673z"/></g></g><g><path d="m7 258 94-240 76 27-102 238z" fill="#f4b666"/><g fill="#913b35"><ellipse cx="58px" cy="229px" rx="16px" ry="15px"/><ellipse cx="124px" cy="67px" rx="15px" ry="15px"/><path d="m71 181 29-71-19.982-38.428-44.364 113.27z"/></g></g><g><path d="m303 0 5 100 75-15-12-85z" fill="#f4b666"/><path d="m345.426 92.515 20.456-4.091-11.218-88.424h-22.744z" fill="#913b35"/></g></g><path d="m0 512h512l-8-67-496 1z" fill="#faf1fa"/></g><g transform="matrix(0.13206017156295854 -0.03538541632261026 0.03538541632261026 0.13206017156295854 132.1339295012944 150.25126265847084)" id="L1_60"><path d="m358 16 66 208-36 12-82-205z" fill="#d5e4e6"/><g><path d="m124 317 92-3-32-251-49 2z" fill="#d5e4e6"/><g fill="#913b35"><path d="m419 232-43.538-118.662 12.082-4.229-29.544-93.109-52 15 37.421 93.553 13.787-4.826 48.792 117.273z"/><path d="m184 63-49 2-3.687 84.453 19.574-1.645-.887 163.192h42l-21.272-164.859 23.619-1.985z"/></g></g><g><g><path d="m73 460h189l-15-176-157 5z" fill="#f4b666"/><g fill="#913b35"><ellipse cx="170px" cy="324px" rx="22px" ry="22px"/><path d="m254.051 366.732-47.051 3.268-10 27-47 2-14-27h-54.251l-1.79 18h43.041l15 27 72-3 10-29 35.559-.573z"/></g></g><path d="m12 512h308l-6-66-294 6z" fill="#faf1fa"/></g><g><path d="m123 3-2 69 241-6-4-66z" fill="#f4b666"/><g fill="#913b35"><ellipse cx="159px" cy="37px" rx="14px" ry="13px"/><ellipse cx="329px" cy="32px" rx="14px" ry="13px"/><path d="m185.001 2.208 22.999 23.792 74-2 20.074-23.286z"/></g></g><g><g><path d="m371 271 7 66 19-7v-69z" fill="#faf1fa"/><path d="m374.285 301.97 22.715-8.113v-32.857l-26 10z" fill="#913b35"/></g><g><path d="m401 256 32 71 18-7-20-74z" fill="#faf1fa"/><path d="m439.65 278.006-8.65-32.006-30 10 14.072 31.223z" fill="#913b35"/></g><g><path d="m457 235 43 57-14 6-53-54z" fill="#faf1fa"/><path d="m475.529 259.562-18.529-24.562-24 9 24.697 25.163z" fill="#913b35"/></g><path d="m450 205-92 35 6 41 108-41z" fill="#f4b666"/><path d="m361.995 267.298 100.3-42.737-6.434-10.237-95.93 38.868z" fill="#913b35"/></g></g><g transform="matrix(0.078125 0 0 0.078125 242.5 67.5)" id="L1_61"><g><path d="m200 276-7 189h103l-20-192z" fill="#d5e4e6"/><g fill="#913b35"><path d="m238 338 48.022 31.214-10.022-96.214-76 3-2.437 65.791z"/><path d="m195.17 406.407 44.83-10.407-3-100h-16l2 77-26.925 8.975z"/></g></g><g><path d="m304.44 273-118.601 17.045-28.839.955-58-123 15-133 195-18z" fill="#d5e4e6"/><g fill="#913b35"><path d="m105.013 114.687 57.987 3.313v-23l-55.405-3.212z"/><path d="m100.47 154.966 54.53 5.034 1-22-53.522-.836z"/><path d="m308 286 1-269-137.994 12.738-28.006 31.262 6 179 36.839 50.045z"/></g><path d="m255 0-74 78 6 153 102 88 83-2-14-130 55-6-62-179z" fill="#f4b666"/><g><circle cx="187" cy="145" r="49" fill="#913b35"/><ellipse cx="188px" cy="145px" rx="33px" ry="32px" fill="#f4b666"/><circle cx="189" cy="146" r="12" fill="#913b35"/></g><ellipse cx="307px" cy="117px" rx="23px" ry="22px" fill="#913b35"/></g><g><path d="m126 512h265l-50-78-184-10z" fill="#f4b666"/><path d="m281 459-132.593-10.607-7.462 21.183 122.055 6.424 7.765 36h20.674z" fill="#913b35"/></g></g><g transform="matrix(0.078125 0 0 0.078125 155 330)" id="L1_62"><g><path d="m183 58 154 94-20 36-161-76z" fill="#d5e4e6"/><path d="m340 172-77.218-43.242 10.955-15.373-90.737-55.385-27 54 88.839 41.936 7.325-10.279 81.836 37.343z" fill="#913b35"/></g><g><path d="m329 312-198-131-40 51 173 149z" fill="#d5e4e6"/><path d="m290 328-103.037-78.083 21.085-17.941-77.048-50.976-40 51 58.155 50.087 18.915-16.094 95.93 86.007z" fill="#913b35"/></g><g><g><path d="m181 475h194l-22-186-149 5z" fill="#f4b666"/><g fill="#913b35"><ellipse cx="280px" cy="329px" rx="21px" ry="18px"/><path d="m363.27 375.826-49.27 2.174-11 25-40 1-20-24-50.232 2.392-1.939 15.255 41.171-1.647 22 25 61-1 12-28 38.028-1.311z"/></g></g><path d="m122 512h314l-6-62-305 5z" fill="#faf1fa"/></g><g><g><g><path d="m348 126 36-59 25 14-35 59z" fill="#d5e4e6"/><path d="m391.207 110.995 17.793-29.995-25-14-16.829 27.58z" fill="#913b35"/></g><g><path d="m374 0-31 53 100 54 33-60z" fill="#faf1fa"/><g fill="#d5e4e6"><path d="m427.252 98.496 15.748 8.504 33-60-18.693-8.614z"/><path d="m359.017 61.649 35.596-52.151-20.613-9.498-31 53z"/></g></g></g><g><path d="m343 101-50 88 48 27 60-81z" fill="#f4b666"/><g fill="#913b35"><ellipse cx="332px" cy="177px" rx="12px" ry="13px"/><path d="m327.611 128.084 51.799 36.062 10.442-14.096-54.829-35.011z"/></g></g></g><g><path d="m36 208 56 43 145-179-64-43z" fill="#f4b666"/><g fill="#913b35"><circle cx="93" cy="193" r="15"/><ellipse cx="180px" cy="80px" rx="16px" ry="15px"/><path d="m109 153 39-49-8.628-31.062-58.915 76.976z"/></g></g></g><g transform="matrix(0.078125 0 0 0.078125 67.5 67.5)" id="L1_63"><g><g><path d="m31 414 59 75 20-14-38-91z" fill="#d5e4e6"/><g fill="#913b35"><path d="m95.03 439.149-23.03-55.149-41 30 32.146 40.863c6.066-.364 13.124-2.225 20.854-6.863 4.337-2.602 7.967-5.63 11.03-8.851z"/><path d="m71 446 30 44 7-4-24-48z"/></g></g><g><path d="m124 286-78 83 24 27 89-51z" fill="#d5e4e6"/><g fill="#913b35"><path d="m113.449 371.103 45.551-26.103-35-59-40.638 43.243z"/><path d="m112 327-57 50 8 9 61-40z"/></g></g><g><ellipse cx="47px" cy="392px" rx="43px" ry="42px" fill="#f4b666"/><circle cx="46" cy="392" r="14" fill="#913b35"/></g><path d="m80 490 21 22 26-14-12-29z" fill="#f4b666"/></g><g><g><path d="m27 146 47 14 28-123-30-5z" fill="#d5e4e6"/><g fill="#913b35"><path d="m57.988 67.496 34.283 12.243 9.729-42.739-30-5z"/><path d="m74 59-38 93 20 9 28-98z"/></g></g><g><path d="m161 177-91-27-20 39 75 55z" fill="#d5e4e6"/><g fill="#913b35"><path d="m70 150-20 39 33.101 24.274c9.753-3.88 20.113-10.373 27.899-21.274 5.095-7.133 7.287-17.183 7.93-27.482z"/><path d="m93 178 64 19-15 25-54-28z"/></g></g><ellipse cx="46px" cy="159px" rx="43px" ry="42px" fill="#f4b666"/><ellipse cx="46px" cy="158px" rx="15px" ry="15px" fill="#913b35"/><path d="m61 38 47 12 5-43-34-7z" fill="#f4b666"/></g><g><g><path d="m417 148-19-102 29-6 38 101z" fill="#d5e4e6"/><g fill="#913b35"><path d="m427 40-29 6 6.445 34.599 34.527-8.778z"/><path d="m413 67 21 93 19-5-27-92z"/></g></g><g><path d="m341 168 85-25 24 44-78 46z" fill="#d5e4e6"/><g fill="#913b35"><path d="m426 143-45.696 13.44c-2.369 11.512-2.592 24.823 3.696 36.56 4.487 8.376 11.391 15.677 18.864 21.798l47.136-27.798z"/><path d="m416 164-72 27 15 28 62-41z"/></g></g><g><circle cx="444" cy="164" r="40" fill="#f4b666"/><ellipse cx="444px" cy="162px" rx="14px" ry="16px" fill="#913b35"/></g><path d="m383 9 5 44 52-14-18-39z" fill="#f4b666"/></g><g><g><path d="m366 292 96 76-21 28-106-49z" fill="#d5e4e6"/><g fill="#913b35"><path d="m397 336 63 41-6 7-71-27z"/><path d="m418.93 333.903-52.93-41.903-31 55 51.486 23.8z"/></g></g><g><g><path d="m446 380-77 96 14 13 100-77z" fill="#d5e4e6"/><g fill="#913b35"><path d="m446 380-35.798 44.631c2.249 5.397 5.661 10.746 10.798 15.369 4.251 3.826 9.406 6.474 14.888 8.276l47.112-36.276z"/><path d="m427 425-58 59 6 4 59-50z"/></g></g><path d="m366 512 28-18-28-27-17 27z" fill="#f4b666"/></g><g><ellipse cx="467px" cy="390px" rx="42px" ry="41px" fill="#f4b666"/><ellipse cx="468px" cy="390px" rx="16px" ry="15px" fill="#913b35"/></g></g><g><g><path d="m172 144s38-64 79-64 72 67 72 67z" fill="#d5e4e6"/><path d="m323 147s-8.22-17.765-21.793-35h-105.082c-14.625 16-24.125 32-24.125 32z" fill="#913b35"/></g><g><path d="m162 385 170 1 76-106-76-147-170 5-68 137z" fill="#f4b666"/><path d="m348.872 165.634-50.872 2.366-14 36-58 1-17-32-63.938-.876-10.858 21.876h53.796l16 37 98-2 18-42 39.293-1.209z" fill="#913b35"/></g><g><ellipse cx="251px" cy="309px" rx="54px" ry="53px" fill="#913b35"/><ellipse cx="251px" cy="309px" rx="38px" ry="37px" fill="#f4b666"/></g></g></g><g transform="matrix(0.07780924763491333 0.008645472090336557 -0.008645472090336557 0.07780924763491333 149.57202468393973 73.80656766658998)" id="L1_64"><g fill="#913b35"><path d="m330 335 75 7 2 37-74 17z"/><path d="m318 142 78 7 2 38-74 14z"/><path d="m192 147-87 9-2 41 87 7z"/><path d="m177 343-80 6v38l79 13z"/></g><g><g><path d="m183 127s25-65 68-65 66 65 66 65z" fill="#d5e4e6"/><path d="m183 127h134s-5.255-14.839-15.429-30.337l-101.195-1.456c-11.302 16.011-17.376 31.793-17.376 31.793z" fill="#913b35"/></g><g><path d="m173 123-1.898 35.623 5.122 10.393-6.186 9.564-14.038 263.42 194-1-17.402-266-8.489-10.177 7.151-10.28-2.26-34.543z" fill="#f4b666"/><path d="m331.26 154.543-50.26 1.457-9 36-41 2-12-37-47.898 1.624-1.064 19.956 33.962-1.58 10 39 73-2 12-39h33.598z" fill="#913b35"/><path d="m309.71 441.208-22.71-59.208-70 1-23.349 58.806z" fill="#913b35"/><g><ellipse cx="254px" cy="301px" rx="54px" ry="52px" fill="#913b35"/><ellipse cx="253px" cy="301px" rx="35px" ry="33px" fill="#f4b666"/></g></g></g><g><path d="m135 0-3.724 146.66-6.561 12.093 5.987 10.519-4.208 165.728-5.115 13.216 4.444 13.215-3.823 150.569-88-4 21-505z" fill="#d5e4e6"/><g fill="#913b35"><path d="m42.709 298.558 84.792-3.2.565-22.282-84.331.811z"/><path d="m41.194 335-.933 22.433 85.562 3.998.671-26.431z"/><path d="m122.718 483.741.568-22.387-87.44 2.262-.775 18.639z"/><path d="m37.387 426.558 86.861-3.102.542-21.355-86.419.778z"/><path d="m53.958 28.062-.924 22.214 80.803-4.489.611-24.038z"/><path d="m46.365 210.64-.898 21.602 83.576 2.388.69-27.196z"/><path d="m48.861 150.622-.841 20.225 82.682-1.575.574-22.612z"/><path d="m50.602 108.762 81.676-1.541.564-22.221h-81.252z"/></g></g><g><path d="m374 0 3.211 137 4.658 13.376-4.031 13.376 3.826 163.248 5.923 12.72-5.367 11.004 3.78 161.276 92-6-24-503z" fill="#d5e4e6"/><g fill="#913b35"><path d="m381.664 327 .556 23.724 88.257-2.386-1.018-21.338z"/><path d="m472.338 387.339-89.204 2.39.569 24.271h89.907z"/><path d="m379.263 224.555 85.113-4.092-.933-19.556-84.754-.823z"/><path d="m380.173 263.383.505 21.555 86.736-.811-1.3-27.23z"/><path d="m476.56 475.814-1.096-22.965-90.747 4.39.645 27.545z"/><path d="m374.485 20.713.601 25.626 81.09 2.273-1.111-23.294z"/><path d="m377.211 137 .627 26.752 83.72-2.347-1.164-24.405z"/><path d="m458.759 102.734-1.212-25.403-81.679 2.356.504 21.507z"/></g></g></g><g transform="matrix(0.060766988529538477 -0.00828640729707289 0.00828640729707289 0.060766988529538477 3.3223306683874902 63.56497120448881)" id="L1_65"><g><path d="m28 14-3 67 459-3-6-62z" fill="#d5e4e6"/><path d="m481.11 48.14-3.11-32.14-450-2-1.697 37.898z" fill="#913b35"/><path d="m0 26 512-1-1-25-510 3z" fill="#faf1fa"/><path d="m1 70 509-5 2 30h-512z" fill="#faf1fa"/><path d="m246.262 95h120.665l1.561-28.61-121.776 1.196z" fill="#913b35"/></g><g><g><path d="m177 315 138 109 21-18-114-129z" fill="#d5e4e6"/><g fill="#913b35"><path d="m222 277-45 38 59.617 47.089c7.376-2.224 14.758-5.994 21.383-12.089 5.795-5.331 9.438-12.006 11.619-19.115z"/><path d="m227 334 91 80 7-6-85-90z"/></g></g><path d="m142 89 22 202h46l8-201z" fill="#d5e4e6"/><path d="m218 90-76-1 10.787 99.046 61.423-2.817z" fill="#913b35"/><path d="m169 148 13 146h13l6-148z" fill="#913b35"/><g><path d="m75 49-3 68 216-3-4-67-41.157.394-62.843 9.149-68.48-7.892z" fill="#f4b666"/><g fill="#913b35"><circle cx="104" cy="82" r="13"/><ellipse cx="255px" cy="80px" rx="14px" ry="14px"/><path d="m111.52 48.65 23.48 20.35 88-1 19.843-20.606z"/></g></g><g><ellipse cx="194px" cy="287px" rx="49px" ry="48px" fill="#f4b666"/><ellipse cx="195px" cy="288px" rx="18px" ry="17px" fill="#913b35"/></g><g><g><path d="m330 486 38-8 1-34 35-14 5 6-31 12-1 38-42 7z" fill="#d5e4e6"/><path d="m389.211 443.66 19.789-7.66-5-6-19.701 7.881z" fill="#913b35"/></g><g><path d="m314 433-13 42 43 37 9-9-36-33 13-24z" fill="#faf1fa"/><path d="m314 433-8.379 27.071 13.483 6.045 10.896-20.116z" fill="#913b35"/></g><path d="m347 420 29-16 36 40 11-6-42-52-43 16z" fill="#faf1fa"/><g><path d="m333 381-42 45 48 27 24-25z" fill="#f4b666"/><path d="m314.934 439.463 32.697-35.541-4.686-7.342-39.512 36.413z" fill="#913b35"/></g></g></g></g><g transform="matrix(-0.0758258742933615 0.008425101104326161 -0.008425101104326161 -0.0758258742933615 202.47174301466137 275.2588104869452)" id="L1_66"><g><path d="m150 39 180 41-5 37-196-24z" fill="#d5e4e6"/><path d="m349 91-99.854-12.104 6.786-15.767-105.932-24.129-21 54 108.365 13.269 6.315-14.672 102.32 16.403z" fill="#913b35"/></g><g><path d="m333 302-232-124-37 44 191 147z" fill="#d5e4e6"/><path d="m292 320-128.634-80.505 20.063-17.438-82.429-44.057-37 44 63.376 48.776 20.299-17.643 112.325 92.867z" fill="#913b35"/></g><g><g><path d="m199 460h180l-27-170-144 9z" fill="#f4b666"/><g fill="#913b35"><ellipse cx="281px" cy="329px" rx="20px" ry="19px"/><path d="m365.968 377.947-49.968 5.053-7 21-41 2-17-21-48.014 3.693-.792 14.172 35.806-2.865 19 22 65-3 7-23 39.205-3.97z"/></g></g><path d="m130 512h320l-14-66-297 6z" fill="#faf1fa"/></g><g><path d="m8 199 58 39 139-196-73-42z" fill="#f4b666"/><g fill="#913b35"><ellipse cx="60px" cy="187px" rx="12px" ry="12px"/><ellipse cx="148px" cy="59px" rx="14px" ry="13px"/><path d="m75 145 39-60-10.549-39.183-64.334 103.245z"/></g></g><g><g><g><path d="m377 94 65 10-2 20-66-3z" fill="#d5e4e6"/><path d="m408.706 98.878-31.706-4.878-3 27 28.493 1.295z" fill="#913b35"/></g><g><ellipse cx="462px" cy="115px" rx="41px" ry="40px" fill="#faf1fa"/><ellipse cx="462px" cy="116px" rx="29px" ry="29px" fill="#913b35"/><circle cx="462" cy="116" r="20" fill="#d5e4e6"/><ellipse cx="472px" cy="118px" rx="6px" ry="5px" fill="#fbf3db"/></g></g><g><path d="m318 58-13 74 76 6 7-59z" fill="#f4b666"/><path d="m349.416 135.506 16.489 1.302 5.912-62.663-11.595-3.478z" fill="#913b35"/></g></g></g></defs><g fi:class="KUsePattern"><pattern id="pattern_L1_54" width="350" height="350" patternUnits="userSpaceOnUse"><use xlink:href="#L1_54" x="-350" y="-350"/><use xlink:href="#L1_54" x="0" y="-350"/><use xlink:href="#L1_54" x="350" y="-350"/><use xlink:href="#L1_54" x="-350" y="0"/><use xlink:href="#L1_54" x="0" y="0"/><use xlink:href="#L1_54" x="350" y="0"/><use xlink:href="#L1_54" x="-350" y="350"/><use xlink:href="#L1_54" x="0" y="350"/><use xlink:href="#L1_54" x="350" y="350"/></pattern><rect x="0" y="0" width="100%" height="100%" fill="url(#pattern_L1_54)"/></g><g fi:class="KUsePattern"><pattern id="pattern_L1_55" width="350" height="350" patternUnits="userSpaceOnUse"><use xlink:href="#L1_55" x="-350" y="-350"/><use xlink:href="#L1_55" x="0" y="-350"/><use xlink:href="#L1_55" x="350" y="-350"/><use xlink:href="#L1_55" x="-350" y="0"/><use xlink:href="#L1_55" x="0" y="0"/><use xlink:href="#L1_55" x="350" y="0"/><use xlink:href="#L1_55" x="-350" y="350"/><use xlink:href="#L1_55" x="0" y="350"/><use xlink:href="#L1_55" x="350" y="350"/></pattern><rect x="0" y="0" width="100%" height="100%" fill="url(#pattern_L1_55)"/></g><g fi:class="KUsePattern"><pattern id="pattern_L1_56" width="350" height="350" patternUnits="userSpaceOnUse"><use xlink:href="#L1_56" x="-350" y="-350"/><use xlink:href="#L1_56" x="0" y="-350"/><use xlink:href="#L1_56" x="350" y="-350"/><use xlink:href="#L1_56" x="-350" y="0"/><use xlink:href="#L1_56" x="0" y="0"/><use xlink:href="#L1_56" x="350" y="0"/><use xlink:href="#L1_56" x="-350" y="350"/><use xlink:href="#L1_56" x="0" y="350"/><use xlink:href="#L1_56" x="350" y="350"/></pattern><rect x="0" y="0" width="100%" height="100%" fill="url(#pattern_L1_56)"/></g><g fi:class="KUsePattern"><pattern id="pattern_L1_57" width="350" height="350" patternUnits="userSpaceOnUse"><use xlink:href="#L1_57" x="-350" y="-350"/><use xlink:href="#L1_57" x="0" y="-350"/><use xlink:href="#L1_57" x="350" y="-350"/><use xlink:href="#L1_57" x="-350" y="0"/><use xlink:href="#L1_57" x="0" y="0"/><use xlink:href="#L1_57" x="350" y="0"/><use xlink:href="#L1_57" x="-350" y="350"/><use xlink:href="#L1_57" x="0" y="350"/><use xlink:href="#L1_57" x="350" y="350"/></pattern><rect x="0" y="0" width="100%" height="100%" fill="url(#pattern_L1_57)"/></g><g fi:class="KUsePattern"><pattern id="pattern_L1_58" width="350" height="350" patternUnits="userSpaceOnUse"><use xlink:href="#L1_58" x="-350" y="-350"/><use xlink:href="#L1_58" x="0" y="-350"/><use xlink:href="#L1_58" x="350" y="-350"/><use xlink:href="#L1_58" x="-350" y="0"/><use xlink:href="#L1_58" x="0" y="0"/><use xlink:href="#L1_58" x="350" y="0"/><use xlink:href="#L1_58" x="-350" y="350"/><use xlink:href="#L1_58" x="0" y="350"/><use xlink:href="#L1_58" x="350" y="350"/></pattern><rect x="0" y="0" width="100%" height="100%" fill="url(#pattern_L1_58)"/></g><g fi:class="KUsePattern"><pattern id="pattern_L1_59" width="350" height="350" patternUnits="userSpaceOnUse"><use xlink:href="#L1_59" x="-350" y="-350"/><use xlink:href="#L1_59" x="0" y="-350"/><use xlink:href="#L1_59" x="350" y="-350"/><use xlink:href="#L1_59" x="-350" y="0"/><use xlink:href="#L1_59" x="0" y="0"/><use xlink:href="#L1_59" x="350" y="0"/><use xlink:href="#L1_59" x="-350" y="350"/><use xlink:href="#L1_59" x="0" y="350"/><use xlink:href="#L1_59" x="350" y="350"/></pattern><rect x="0" y="0" width="100%" height="100%" fill="url(#pattern_L1_59)"/></g><g fi:class="KUsePattern"><pattern id="pattern_L1_60" width="350" height="350" patternUnits="userSpaceOnUse"><use xlink:href="#L1_60" x="-350" y="-350"/><use xlink:href="#L1_60" x="0" y="-350"/><use xlink:href="#L1_60" x="350" y="-350"/><use xlink:href="#L1_60" x="-350" y="0"/><use xlink:href="#L1_60" x="0" y="0"/><use xlink:href="#L1_60" x="350" y="0"/><use xlink:href="#L1_60" x="-350" y="350"/><use xlink:href="#L1_60" x="0" y="350"/><use xlink:href="#L1_60" x="350" y="350"/></pattern><rect x="0" y="0" width="100%" height="100%" fill="url(#pattern_L1_60)"/></g><g fi:class="KUsePattern"><pattern id="pattern_L1_61" width="350" height="350" patternUnits="userSpaceOnUse"><use xlink:href="#L1_61" x="-350" y="-350"/><use xlink:href="#L1_61" x="0" y="-350"/><use xlink:href="#L1_61" x="350" y="-350"/><use xlink:href="#L1_61" x="-350" y="0"/><use xlink:href="#L1_61" x="0" y="0"/><use xlink:href="#L1_61" x="350" y="0"/><use xlink:href="#L1_61" x="-350" y="350"/><use xlink:href="#L1_61" x="0" y="350"/><use xlink:href="#L1_61" x="350" y="350"/></pattern><rect x="0" y="0" width="100%" height="100%" fill="url(#pattern_L1_61)"/></g><g fi:class="KUsePattern"><pattern id="pattern_L1_62" width="350" height="350" patternUnits="userSpaceOnUse"><use xlink:href="#L1_62" x="-350" y="-350"/><use xlink:href="#L1_62" x="0" y="-350"/><use xlink:href="#L1_62" x="350" y="-350"/><use xlink:href="#L1_62" x="-350" y="0"/><use xlink:href="#L1_62" x="0" y="0"/><use xlink:href="#L1_62" x="350" y="0"/><use xlink:href="#L1_62" x="-350" y="350"/><use xlink:href="#L1_62" x="0" y="350"/><use xlink:href="#L1_62" x="350" y="350"/></pattern><rect x="0" y="0" width="100%" height="100%" fill="url(#pattern_L1_62)"/></g><g fi:class="KUsePattern"><pattern id="pattern_L1_63" width="350" height="350" patternUnits="userSpaceOnUse"><use xlink:href="#L1_63" x="-350" y="-350"/><use xlink:href="#L1_63" x="0" y="-350"/><use xlink:href="#L1_63" x="350" y="-350"/><use xlink:href="#L1_63" x="-350" y="0"/><use xlink:href="#L1_63" x="0" y="0"/><use xlink:href="#L1_63" x="350" y="0"/><use xlink:href="#L1_63" x="-350" y="350"/><use xlink:href="#L1_63" x="0" y="350"/><use xlink:href="#L1_63" x="350" y="350"/></pattern><rect x="0" y="0" width="100%" height="100%" fill="url(#pattern_L1_63)"/></g><g fi:class="KUsePattern"><pattern id="pattern_L1_64" width="350" height="350" patternUnits="userSpaceOnUse"><use xlink:href="#L1_64" x="-350" y="-350"/><use xlink:href="#L1_64" x="0" y="-350"/><use xlink:href="#L1_64" x="350" y="-350"/><use xlink:href="#L1_64" x="-350" y="0"/><use xlink:href="#L1_64" x="0" y="0"/><use xlink:href="#L1_64" x="350" y="0"/><use xlink:href="#L1_64" x="-350" y="350"/><use xlink:href="#L1_64" x="0" y="350"/><use xlink:href="#L1_64" x="350" y="350"/></pattern><rect x="0" y="0" width="100%" height="100%" fill="url(#pattern_L1_64)"/></g><g fi:class="KUsePattern"><pattern id="pattern_L1_65" width="350" height="350" patternUnits="userSpaceOnUse"><use xlink:href="#L1_65" x="-350" y="-350"/><use xlink:href="#L1_65" x="0" y="-350"/><use xlink:href="#L1_65" x="350" y="-350"/><use xlink:href="#L1_65" x="-350" y="0"/><use xlink:href="#L1_65" x="0" y="0"/><use xlink:href="#L1_65" x="350" y="0"/><use xlink:href="#L1_65" x="-350" y="350"/><use xlink:href="#L1_65" x="0" y="350"/><use xlink:href="#L1_65" x="350" y="350"/></pattern><rect x="0" y="0" width="100%" height="100%" fill="url(#pattern_L1_65)"/></g><g fi:class="KUsePattern"><pattern id="pattern_L1_66" width="350" height="350" patternUnits="userSpaceOnUse"><use xlink:href="#L1_66" x="-350" y="-350"/><use xlink:href="#L1_66" x="0" y="-350"/><use xlink:href="#L1_66" x="350" y="-350"/><use xlink:href="#L1_66" x="-350" y="0"/><use xlink:href="#L1_66" x="0" y="0"/><use xlink:href="#L1_66" x="350" y="0"/><use xlink:href="#L1_66" x="-350" y="350"/><use xlink:href="#L1_66" x="0" y="350"/><use xlink:href="#L1_66" x="350" y="350"/></pattern><rect x="0" y="0" width="100%" height="100%" fill="url(#pattern_L1_66)"/></g></svg>