<svg xmlns="http://www.w3.org/2000/svg" xmlns:xlink="http://www.w3.org/1999/xlink" xmlns:fi="http://pattern.flaticon.com/" x="0" y="0" width="1200" height="600" viewBox="0 0 1200 600"><rect x="0px" y="0px" width="100%" height="100%" opacity="0" fill="#ffffff"/><defs><g transform="matrix(0.0390625 0 0 0.0390625 165 165)" id="L1_32"><rect x="240px" y="212px" width="32px" height="224px" fill="#edebed"/><path d="M264,244h8v-32h-32v224h16V252C256,247.582,259.582,244,264,244z" fill="#dbd9dc"/><path d="M266.134,9.423c-4.821-7.231-15.447-7.231-20.268,0C231.608,30.81,224,55.939,224,81.642V148h64  V81.642C288,55.939,280.392,30.81,266.134,9.423z" fill="#edebed"/><path d="M268,12.46c-0.632-1.007-1.206-2.045-1.866-3.037c-4.821-7.231-15.447-7.231-20.268,0  C231.608,30.81,224,55.939,224,81.642V148h24V81.642C248,57.13,254.993,33.18,268,12.46z" fill="#dbd9dc"/><path d="M489.767,170.419L288,148h-64.002L22.233,170.419C14.13,171.319,8,178.168,8,186.32V228h496v-41.679  C504,178.168,497.87,171.319,489.767,170.419z" fill="#99e7ff"/><path d="M504,188 472,188 472,168.444 456,166.667 456,188 440,188 440,164.889 424,163.111 424,188   408,188 408,161.334 392,159.556 392,188 376,188 376,157.778 360,156 360,188 344,188 344,154.222 328,152.444 328,188 312,188   312,150.667 296,148.889 296,188 280,188 280,148 264,148 264,188 248,188 248,148 232,148 232,188 216,188 216,148.889   200,150.667 200,188 184,188 184,152.444 168,154.222 168,188 152,188 152,156 136,157.777 136,188 120,188 120,159.555   104,161.333 104,188 88,188 88,163.111 72,164.889 72,188 56,188 56,166.667 40,168.444 40,188 8,188 8,204 40,204 40,228 56,228   56,204 72,204 72,228 88,228 88,204 104,204 104,228 120,228 120,204 136,204 136,228 152,228 152,204 168,204 168,228 184,228   184,204 200,204 200,228 216,228 216,204 232,204 232,228 248,228 248,204 264,204 264,228 280,228 280,204 296,204 296,228   312,228 312,204 328,204 328,228 344,228 344,204 360,204 360,228 376,228 376,204 392,204 392,228 408,228 408,204 424,204   424,228 440,228 440,204 456,204 456,228 472,228 472,204 504,204z" fill="#59d8ff"/><path d="M504,244c-4.422,0-8-3.578-8-8v-49.68c0-4.078-3.063-7.5-7.117-7.945L287.555,156h-63.109  L23.117,178.375C19.063,178.82,16,182.242,16,186.32V236c0,4.422-3.578,8-8,8s-8-3.578-8-8v-49.68c0-12.25,9.18-22.5,21.352-23.852  l201.766-22.422c0.289-0.031,0.586-0.047,0.883-0.047h64c0.297,0,0.594,0.016,0.883,0.047l201.766,22.422  C502.82,163.82,512,174.07,512,186.32V236C512,240.422,508.422,244,504,244z" fill="#edebed"/><path d="M271.992,88.438c-1.367,0-2.75-0.352-4.016-1.086c-7.641-4.453-16.313-4.453-23.953,0  c-3.82,2.203-8.719,0.93-10.938-2.891c-2.227-3.82-0.93-8.719,2.891-10.938c12.594-7.328,27.453-7.328,40.047,0  c3.82,2.219,5.117,7.117,2.891,10.938C277.43,87.016,274.75,88.438,271.992,88.438z" fill="#59d8ff"/><rect x="176px" y="444px" width="160px" height="24px" fill="#dbd9dc"/><path d="M329.986,435.188c0,0-57.659-7.167-57.986-7.188h-32c-0.327,0.02-57.986,7.188-57.986,7.188  c-8.006,1.001-14.014,7.807-14.014,15.875V476c0,4.422,3.578,8,8,8s8-3.578,8-8v-24.938l58.976-6.508  c2.681-0.296,5.024,1.803,5.024,4.5V500c0,4.422,3.578,8,8,8s8-3.578,8-8v-50.945c0-2.697,2.343-4.796,5.024-4.5L328,451.063V476  c0,4.422,3.578,8,8,8s8-3.578,8-8v-24.938C344,442.994,337.992,436.189,329.986,435.188z" fill="#edebed"/></g><g transform="matrix(0.078125 0 0 0.078125 242.5 67.5)" id="L1_33"><path d="M409.119,479.76 102.879,479.76 102.879,358.876 255.999,439.466 409.119,358.876z" fill="#e5f9ff"/><path d="M102.879,350.821c-4.454,0-8.059,3.608-8.059,8.059v120.88h16.118V358.88  C110.938,354.43,107.334,350.821,102.879,350.821z" fill="#ccf3ff"/><path d="M102.879,334.703c-4.454,0-8.059-3.608-8.059-8.059v-16.118c0-4.451,3.604-8.059,8.059-8.059  c4.454,0,8.059,3.608,8.059,8.059v16.118C110.938,331.095,107.334,334.703,102.879,334.703z" fill="#e5f9ff"/><path d="M153.917,479.764c-4.454,0-8.059-3.608-8.059-8.059v-85.626c0-4.451,3.604-8.059,8.059-8.059  s8.059,3.608,8.059,8.059v85.626C161.975,476.156,158.371,479.764,153.917,479.764z" fill="#ccf3ff"/><path d="M153.917,361.902c-4.454,0-8.059-3.608-8.059-8.059v-16.118c0-4.451,3.604-8.059,8.059-8.059  s8.059,3.608,8.059,8.059v16.118C161.975,358.294,158.371,361.902,153.917,361.902z" fill="#e5f9ff"/><path d="M204.962,479.764c-4.454,0-8.059-3.608-8.059-8.059v-58.931c0-4.451,3.604-8.059,8.059-8.059  c4.454,0,8.059,3.608,8.059,8.059v58.931C213.021,476.156,209.416,479.764,204.962,479.764z" fill="#ccf3ff"/><path d="M204.962,388.598c-4.454,0-8.059-3.608-8.059-8.059v-16.118c0-4.451,3.604-8.059,8.059-8.059  c4.454,0,8.059,3.608,8.059,8.059v16.118C213.021,384.989,209.416,388.598,204.962,388.598z" fill="#e5f9ff"/><path d="M255.999,479.76c-4.454,0-8.059-3.608-8.059-8.059v-32.236c0-4.451,3.604-8.059,8.059-8.059  c4.454,0,8.059,3.608,8.059,8.059v32.236C264.058,476.152,260.453,479.76,255.999,479.76z" fill="#ccf3ff"/><path d="M255.999,415.293c-4.454,0-8.059-3.608-8.059-8.059v-16.122c0-4.451,3.604-8.059,8.059-8.059  c4.454,0,8.059,3.608,8.059,8.059v16.122C264.058,411.684,260.453,415.293,255.999,415.293z" fill="#e5f9ff"/><path d="M409.119,350.821c-4.454,0-8.059,3.608-8.059,8.059v120.88h16.118V358.88  C417.178,354.43,413.573,350.821,409.119,350.821z" fill="#ccf3ff"/><path d="M409.119,334.703c-4.454,0-8.059-3.608-8.059-8.059v-16.118c0-4.451,3.604-8.059,8.059-8.059  c4.454,0,8.059,3.608,8.059,8.059v16.118C417.178,331.095,413.573,334.703,409.119,334.703z" fill="#e5f9ff"/><path d="M358.081,479.764c-4.454,0-8.059-3.608-8.059-8.059v-85.626c0-4.451,3.604-8.059,8.059-8.059  c4.454,0,8.059,3.608,8.059,8.059v85.626C366.14,476.156,362.536,479.764,358.081,479.764z" fill="#ccf3ff"/><path d="M358.081,361.902c-4.454,0-8.059-3.608-8.059-8.059v-16.118c0-4.451,3.604-8.059,8.059-8.059  c4.454,0,8.059,3.608,8.059,8.059v16.118C366.14,358.294,362.536,361.902,358.081,361.902z" fill="#e5f9ff"/><path d="M307.036,479.764c-4.454,0-8.059-3.608-8.059-8.059v-58.931c0-4.451,3.604-8.059,8.059-8.059  c4.454,0,8.059,3.608,8.059,8.059v58.931C315.095,476.156,311.491,479.764,307.036,479.764z" fill="#ccf3ff"/><g><path d="M307.036,388.598c-4.454,0-8.059-3.608-8.059-8.059v-16.118c0-4.451,3.604-8.059,8.059-8.059   c4.454,0,8.059,3.608,8.059,8.059v16.118C315.095,384.989,311.491,388.598,307.036,388.598z" fill="#e5f9ff"/><path d="M255.999,32.222l-128.943,74.651V256.29l128.943,74.652l128.943-74.651V106.873L255.999,32.222z    M255.999,32.222L255.999,32.222L255.999,32.222L255.999,32.222z M243.887,11.299h0.079H243.887z" fill="#e5f9ff"/></g><path d="M408.772,260.741l-144.715-83.786V12.346c0-4.451-3.604-8.059-8.059-8.059  c-4.454,0-8.059,3.608-8.059,8.059v164.609l-144.715,83.786c-3.856,2.227-5.171,7.158-2.936,11.01  c2.227,3.845,7.162,5.167,11.01,2.936l144.701-83.777l144.699,83.777c1.267,0.736,2.66,1.086,4.029,1.086  c2.778,0,5.485-1.44,6.981-4.022C413.943,267.899,412.629,262.968,408.772,260.741z" fill="#ccf3ff"/><path d="M419.405,476.158c-1.365-2.73-4.155-4.455-7.208-4.455H99.801c-3.053,0-5.843,1.725-7.208,4.455  l-13.891,27.781h354.593L419.405,476.158z" fill="#dbd9dc"/><path d="M401.091,78.978L272.148,4.327c-9.964-5.769-22.335-5.769-32.299,0L110.907,78.974  c-9.924,5.741-16.086,16.433-16.086,27.899V256.29c0,11.467,6.162,22.158,16.086,27.895l128.943,74.651  c4.982,2.888,10.562,4.329,16.149,4.329s11.168-1.44,16.149-4.329l128.943-74.647c9.924-5.741,16.086-16.433,16.086-27.899V106.873  C417.178,95.407,411.015,84.715,401.091,78.978z M247.924,18.272c2.495-1.44,5.281-2.164,8.075-2.164  c2.794,0,5.58,0.724,8.075,2.164l128.943,74.655c0.004,0.002,0.008,0.007,0.012,0.009l-128.955,74.658  c-4.99,2.88-11.16,2.88-16.149,0L118.966,92.935c0.006-0.003,0.009-0.008,0.015-0.012L247.924,18.272z M118.981,270.236  c-4.958-2.869-8.043-8.212-8.043-13.946V106.908l128.911,74.632c2.564,1.487,5.29,2.575,8.09,3.295v160.062  c-0.005-0.003-0.011-0.003-0.016-0.006L118.981,270.236z M393.017,270.24l-128.943,74.651c-0.005,0.003-0.011,0.003-0.016,0.006  V184.836c2.801-0.72,5.526-1.808,8.09-3.295l128.911-74.633V256.29C401.06,262.024,397.975,267.367,393.017,270.24z" fill="#59d8ff"/><path d="M220.685,471.703H99.801c-3.053,0-5.843,1.725-7.208,4.455l-13.891,27.781h120.884l13.891-27.781  C214.842,473.428,217.632,471.703,220.685,471.703z" fill="#c9c6ca"/><path d="M457.472,512H54.526c-4.454,0-8.059-3.608-8.059-8.059s3.604-8.059,8.059-8.059h402.947  c4.454,0,8.059,3.608,8.059,8.059C465.531,508.392,461.927,512,457.472,512z" fill="#edebed"/><path d="M191.528,503.941c0-4.451,3.604-8.059,8.059-8.059H54.526c-4.454,0-8.059,3.608-8.059,8.059  S50.071,512,54.526,512h145.061C195.132,512,191.528,508.392,191.528,503.941z" fill="#dbd9dc"/></g><g transform="matrix(0.17578125 0 0 0.17578125 305 305)" id="L1_34"><circle cx="255" cy="146" r="113" fill="#99e7ff"/><circle cx="255" cy="146" r="89" fill="#ccf3ff"/><circle cx="255" cy="146" r="48" fill="#ffffff"/><path d="M291.02,300.924c-10.183-1.656-18.984,6.16-18.984,16.031V146.292c0-9.872-8.8-17.687-18.983-16.032  c-7.992,1.299-13.525,8.804-13.525,16.901v137.287c0-9.872-8.8-17.687-18.983-16.032c-7.992,1.299-13.525,8.804-13.525,16.901  v15.385c0-9.872-8.8-17.687-18.983-16.032c-7.992,1.299-13.525,8.804-13.525,16.901v15.385c0-9.872-8.8-17.687-18.983-16.032  c-7.992,1.299-13.525,8.804-13.525,16.901v52.142c0,7.973,0.978,15.916,2.912,23.651l10.43,41.72  c1.934,7.735,2.912,15.678,2.912,23.651v44.883c0,4.488,3.638,8.127,8.127,8.127h113.776c4.488,0,8.127-3.638,8.127-8.127v-38.056  c0-7.115,0.779-14.209,2.322-21.154l11.609-52.242c1.544-6.946,2.322-14.041,2.322-21.157v-53.439  C304.543,309.729,299.011,302.224,291.02,300.924z" fill="#6f6571"/><path d="M333.471,268.683c-2.595,0-5.151-1.242-6.722-3.552c-2.532-3.706-1.571-8.762,2.135-11.289  c4.198-2.861,8.278-6.004,12.119-9.337c3.389-2.932,8.524-2.583,11.46,0.813c2.944,3.389,2.579,8.52-0.81,11.464  c-4.309,3.742-8.897,7.274-13.611,10.488C336.638,268.227,335.043,268.683,333.471,268.683z M174.49,266.147  c-1.659,0-3.333-0.508-4.778-1.56c-4.627-3.373-9.095-7.051-13.278-10.928c-3.294-3.052-3.484-8.194-0.437-11.484  c3.048-3.302,8.19-3.492,11.484-0.436c3.722,3.448,7.69,6.714,11.801,9.714c3.627,2.647,4.428,7.73,1.778,11.357  C179.474,264.988,176.998,266.147,174.49,266.147z M368.161,234.799c-1.635,0-3.286-0.492-4.714-1.516  c-3.659-2.611-4.5-7.686-1.889-11.337c2.96-4.147,5.714-8.504,8.167-12.944c2.159-3.925,7.103-5.357,11.039-3.186  c3.928,2.171,5.357,7.115,3.182,11.043c-2.754,4.988-5.833,9.881-9.167,14.539C373.193,233.616,370.701,234.799,368.161,234.799z   M140.895,231.172c-2.619,0-5.19-1.262-6.762-3.603c-3.182-4.75-6.111-9.746-8.706-14.841c-2.04-4-0.452-8.893,3.548-10.932  c4-2.056,8.897-0.444,10.928,3.552c2.309,4.528,4.913,8.956,7.738,13.174c2.492,3.726,1.5,8.778-2.23,11.274  C144.022,230.727,142.451,231.172,140.895,231.172z M389.042,191.018c-0.714,0-1.444-0.095-2.167-0.298  c-4.325-1.19-6.865-5.663-5.674-9.992c1.341-4.885,2.405-9.913,3.159-14.944c0.667-4.432,4.73-7.512,9.246-6.833  c4.436,0.663,7.492,4.801,6.833,9.238c-0.849,5.675-2.056,11.345-3.571,16.857C395.875,188.649,392.605,191.018,389.042,191.018z   M121.42,186.744c-3.667,0-7-2.504-7.897-6.23c-1.325-5.52-2.341-11.218-3.016-16.928c-0.524-4.456,2.659-8.5,7.119-9.028  c4.373-0.5,8.492,2.659,9.024,7.115c0.603,5.083,1.5,10.143,2.683,15.047c1.048,4.365-1.643,8.75-6.008,9.797  C122.689,186.672,122.047,186.744,121.42,186.744z M393.439,142.701c-4.182,0-7.73-3.202-8.087-7.444  c-0.429-5.059-1.159-10.151-2.175-15.131c-0.897-4.397,1.936-8.69,6.333-9.587c4.381-0.873,8.69,1.944,9.587,6.341  c1.143,5.599,1.968,11.321,2.444,17.012c0.381,4.472-2.936,8.405-7.413,8.782C393.899,142.693,393.669,142.701,393.439,142.701z   M118.562,138.328c-0.31,0-0.627-0.016-0.936-0.052c-4.46-0.516-7.659-4.548-7.143-9.008c0.659-5.694,1.659-11.397,2.984-16.944  c1.04-4.369,5.452-7.04,9.793-6.02c4.365,1.04,7.055,5.425,6.016,9.79c-1.175,4.921-2.063,9.98-2.651,15.039  C126.15,135.277,122.634,138.328,118.562,138.328z M380.947,95.853c-3.063,0-5.992-1.73-7.373-4.682  c-2.143-4.583-4.587-9.099-7.278-13.42c-2.365-3.809-1.198-8.821,2.611-11.19c3.817-2.369,8.825-1.198,11.198,2.611  c3.024,4.865,5.778,9.948,8.198,15.111c1.897,4.067,0.143,8.905-3.921,10.805C383.272,95.607,382.097,95.853,380.947,95.853z   M132.546,91.892c-1.238,0-2.492-0.282-3.675-0.881c-4-2.032-5.595-6.924-3.563-10.924c2.595-5.115,5.516-10.111,8.682-14.853  c2.492-3.734,7.524-4.754,11.278-2.246c3.73,2.492,4.738,7.54,2.246,11.27c-2.817,4.21-5.405,8.647-7.714,13.186  C138.364,90.269,135.515,91.892,132.546,91.892z M352.987,56.246c-2.063,0-4.135-0.786-5.722-2.353  c-3.603-3.567-7.46-6.968-11.476-10.103c-3.532-2.766-4.159-7.873-1.397-11.409c2.754-3.54,7.849-4.171,11.413-1.401  c4.508,3.528,8.849,7.353,12.905,11.365c3.182,3.159,3.206,8.305,0.048,11.492C357.169,55.445,355.082,56.246,352.987,56.246z   M161.776,53.175c-2.182,0-4.357-0.873-5.96-2.599c-3.048-3.29-2.857-8.432,0.429-11.484c4.19-3.881,8.643-7.563,13.254-10.936  c3.619-2.655,8.722-1.869,11.357,1.754c2.651,3.623,1.865,8.706-1.754,11.357c-4.103,3.008-8.071,6.282-11.793,9.738  C165.736,52.457,163.76,53.175,161.776,53.175z M313.075,28.675c-1.127,0-2.27-0.238-3.365-0.734  c-4.643-2.115-9.444-3.972-14.262-5.52c-4.278-1.369-6.635-5.944-5.262-10.218c1.373-4.27,5.96-6.643,10.214-5.258  c5.428,1.738,10.833,3.825,16.055,6.202c4.079,1.861,5.881,6.682,4.024,10.766C319.114,26.905,316.162,28.675,313.075,28.675z   M202.521,26.905c-3.175,0-6.19-1.877-7.5-4.992c-1.73-4.143,0.222-8.905,4.365-10.635c5.278-2.21,10.738-4.123,16.23-5.69  c4.325-1.214,8.817,1.274,10.047,5.591s-1.278,8.813-5.587,10.043c-4.881,1.389-9.73,3.087-14.42,5.048  C204.632,26.699,203.569,26.905,202.521,26.905z M266.107,16.644c-0.198,0-0.405-0.008-0.611-0.024  c-3.294-0.246-6.651-0.278-9.952-0.357c-1.794,0-3.571,0.04-5.341,0.115c-0.111,0.004-0.23,0.008-0.349,0.008  c-4.325,0-7.928-3.417-8.111-7.782c-0.19-4.484,3.286-8.274,7.778-8.464c2.079-0.091,4.095-0.167,6.278-0.131  c3.659,0,7.294,0.135,10.905,0.405c4.476,0.333,7.833,4.23,7.5,8.706C273.885,13.39,270.322,16.644,266.107,16.644z" fill="#e5f9ff"/><g><path d="M182.641,512c-4.489,0-8.127-3.639-8.127-8.127v-44.884c0-7.973-0.978-15.916-2.912-23.651   l-10.43-41.72c-1.934-7.735-2.912-15.678-2.912-23.651v-52.141c0-6.109,3.154-11.872,8.133-14.896   c-3.119-1.813-6.872-2.654-10.862-2.005c-7.992,1.3-13.525,8.804-13.525,16.901v52.141c0,7.973,0.978,15.916,2.912,23.651   l10.43,41.72c1.934,7.735,2.912,15.678,2.912,23.651v44.884c0,4.488,3.638,8.127,8.127,8.127h113.776l0,0H182.641z" fill="#5d5360"/><path d="M182.641,325.083c4.489,0,8.127-3.639,8.127-8.127V284.53c-0.9-0.001-1.8-0.011-2.729,0.14   c-7.992,1.3-13.525,8.804-13.525,16.901v15.385C174.514,321.444,178.152,325.083,182.641,325.083z" fill="#5d5360"/><path d="M215.148,316.956c4.489,0,8.127-3.639,8.127-8.127v-40.552c-0.9-0.001-1.8-0.011-2.729,0.14   c-7.992,1.3-13.525,8.804-13.525,16.901v15.385v8.127C207.021,313.317,210.66,316.956,215.148,316.956z" fill="#5d5360"/><path d="M247.655,300.702c4.489,0,8.127-3.639,8.127-8.127V130.12c-0.9-0.001-1.8-0.011-2.729,0.14   c-7.992,1.3-13.525,8.804-13.525,16.901v137.287v8.127C239.529,297.063,243.167,300.702,247.655,300.702z" fill="#5d5360"/><path d="M288.29,349.463v-48.679c-8.968,0.01-16.254,7.201-16.254,16.171v32.507   c0,4.488,3.638,8.127,8.127,8.127C284.651,357.59,288.29,353.951,288.29,349.463z" fill="#5d5360"/></g></g><g transform="matrix(0.0390625 0 0 0.0390625 326 102)" id="L1_35"><path d="M361.651,479.492 321.016,463.238 321.016,503.873 361.651,503.873z" fill="#aea8af"/><path d="M304.762,390.095l22.756-17.067c6.139-4.604,9.752-11.831,9.752-19.505v-69.079h-32.508  L304.762,390.095L304.762,390.095z" fill="#dbd9dc"/><path d="M337.27,313.522c-4.984,2.181-10.466,3.431-16.254,3.431s-11.27-1.249-16.254-3.431v-29.077h32.508  V313.522z" fill="#c9c6ca"/><g><path d="M288.508,495.746h65.016v-5.536c0-3.254-1.937-6.187-4.921-7.472l-37.198-15.936   c-8.968-3.849-14.77-12.647-14.77-22.409V276.317h16.254v168.075c0,3.254,1.936,6.187,4.921,7.472l37.198,15.937   c8.968,3.849,14.77,12.647,14.77,22.409v5.536c0,8.964-7.294,16.254-16.254,16.254h-65.016c-4.492,0-8.127-3.639-8.127-8.127   S284.016,495.746,288.508,495.746z" fill="#9c969e"/><rect x="312px" y="186px" width="16px" height="73px" fill="#9c969e"/></g><rect x="312px" y="186px" width="16px" height="24px" fill="#867e88"/><g><circle cx="321" cy="276" r="24" fill="#aea8af"/><path d="M150.349,479.492 190.984,463.238 190.984,503.873 150.349,503.873z" fill="#aea8af"/></g><path d="M207.238,390.095l-22.756-17.067c-6.139-4.604-9.752-11.831-9.752-19.505v-69.079h32.508V390.095z" fill="#dbd9dc"/><path d="M174.73,313.522c4.984,2.181,10.466,3.431,16.254,3.431s11.27-1.249,16.254-3.431v-29.077H174.73  V313.522z" fill="#c9c6ca"/><g><path d="M223.492,495.746h-65.016v-5.536c0-3.254,1.937-6.187,4.921-7.472l37.198-15.936   c8.968-3.849,14.77-12.647,14.77-22.409V276.317h-16.254v168.075c0,3.254-1.937,6.187-4.921,7.472l-37.198,15.937   c-8.968,3.849-14.77,12.647-14.77,22.409v5.536c0,8.964,7.294,16.254,16.254,16.254h65.016c4.492,0,8.127-3.639,8.127-8.127   S227.984,495.746,223.492,495.746z" fill="#9c969e"/><rect x="182px" y="186px" width="16px" height="73px" fill="#9c969e"/></g><rect x="182px" y="186px" width="16px" height="24px" fill="#867e88"/><circle cx="190" cy="276" r="24" fill="#aea8af"/><g><path d="M163.519,4.494l23.831,47.662c2.359,4.718,6.185,8.544,10.903,10.903l30.23,15.115   c6.63,3.315,10.177,10.696,8.624,17.944l-18.989,88.617c-1.606,7.494-8.229,12.848-15.893,12.848h-22.057   c-7.855,0-14.587-5.618-15.992-13.346L135.619,27.169c-0.954-5.248,0.727-10.629,4.499-14.401l10.386-10.386   C154.426-1.541,161.038-0.468,163.519,4.494z" fill="#edebed"/><path d="M371.883,12.767L361.497,2.382c-3.923-3.922-10.535-2.849-13.016,2.112L324.65,52.155   c-2.359,4.719-6.185,8.545-10.903,10.904l-30.231,15.115c-6.63,3.315-10.177,10.695-8.624,17.943l18.99,88.617   c1.606,7.495,8.229,12.849,15.893,12.849h22.057c7.855,0,14.586-5.618,15.992-13.347l28.558-157.068   C377.335,21.921,375.654,16.539,371.883,12.767z" fill="#edebed"/></g><g><path d="M198.698,181.329c-7.855,0-14.586-5.618-15.992-13.347L152.057,1.166   c-0.549,0.333-1.072,0.734-1.554,1.215l-10.386,10.386c-3.771,3.772-5.452,9.153-4.499,14.401l28.558,157.068   c1.405,7.729,8.136,13.347,15.992,13.347h22.057c7.664,0,14.287-5.354,15.893-12.849l0.73-3.405H198.698z" fill="#dbd9dc"/><path d="M160.232,162.54l3.945,21.697c1.405,7.729,8.136,13.347,15.992,13.347h22.057   c7.664,0,14.287-5.354,15.893-12.849l4.756-22.195L160.232,162.54L160.232,162.54z" fill="#dbd9dc"/></g><path d="M164.177,184.237c1.405,7.729,8.136,13.347,15.992,13.347h22.057c7.664,0,14.287-5.354,15.893-12.849  l0.73-3.405H198.7c-7.855,0-14.586-5.618-15.992-13.347l-1-5.443h-21.475L164.177,184.237z" fill="#c9c6ca"/><g><path d="M327.29,181.329c-7.664,0-14.287-5.354-15.893-12.849l-18.99-88.617   c-0.44-2.054-0.43-4.107-0.097-6.086l-8.794,4.397c-6.63,3.315-10.177,10.695-8.624,17.943l18.99,88.617   c1.606,7.495,8.229,12.849,15.893,12.849h22.057c7.855,0,14.586-5.618,15.992-13.347l0.529-2.907L327.29,181.329L327.29,181.329z" fill="#dbd9dc"/><path d="M289.126,162.54l4.756,22.195c1.606,7.495,8.229,12.849,15.893,12.849h22.057   c7.855,0,14.586-5.618,15.992-13.347l3.945-21.697L289.126,162.54L289.126,162.54z" fill="#dbd9dc"/></g><path d="M293.882,184.735c1.606,7.495,8.229,12.849,15.893,12.849h22.057c7.855,0,14.586-5.618,15.992-13.347  l0.529-2.907H327.29c-7.664,0-14.287-5.354-15.893-12.849l-1.273-5.941h-20.998L293.882,184.735z" fill="#c9c6ca"/></g><g transform="matrix(-0.1171875 0 0 0.1171875 164.48699307441706 68.5)" id="L1_36"><circle cx="255" cy="146" r="113" fill="#99e7ff"/><circle cx="255" cy="146" r="89" fill="#ccf3ff"/><circle cx="255" cy="146" r="48" fill="#ffffff"/><path d="M291.02,300.924c-10.183-1.656-18.984,6.16-18.984,16.031V146.292c0-9.872-8.8-17.687-18.983-16.032  c-7.992,1.299-13.525,8.804-13.525,16.901v137.287c0-9.872-8.8-17.687-18.983-16.032c-7.992,1.299-13.525,8.804-13.525,16.901  v15.385c0-9.872-8.8-17.687-18.983-16.032c-7.992,1.299-13.525,8.804-13.525,16.901v15.385c0-9.872-8.8-17.687-18.983-16.032  c-7.992,1.299-13.525,8.804-13.525,16.901v52.142c0,7.973,0.978,15.916,2.912,23.651l10.43,41.72  c1.934,7.735,2.912,15.678,2.912,23.651v44.883c0,4.488,3.638,8.127,8.127,8.127h113.776c4.488,0,8.127-3.638,8.127-8.127v-38.056  c0-7.115,0.779-14.209,2.322-21.154l11.609-52.242c1.544-6.946,2.322-14.041,2.322-21.157v-53.439  C304.543,309.729,299.011,302.224,291.02,300.924z" fill="#6f6571"/><path d="M333.471,268.683c-2.595,0-5.151-1.242-6.722-3.552c-2.532-3.706-1.571-8.762,2.135-11.289  c4.198-2.861,8.278-6.004,12.119-9.337c3.389-2.932,8.524-2.583,11.46,0.813c2.944,3.389,2.579,8.52-0.81,11.464  c-4.309,3.742-8.897,7.274-13.611,10.488C336.638,268.227,335.043,268.683,333.471,268.683z M174.49,266.147  c-1.659,0-3.333-0.508-4.778-1.56c-4.627-3.373-9.095-7.051-13.278-10.928c-3.294-3.052-3.484-8.194-0.437-11.484  c3.048-3.302,8.19-3.492,11.484-0.436c3.722,3.448,7.69,6.714,11.801,9.714c3.627,2.647,4.428,7.73,1.778,11.357  C179.474,264.988,176.998,266.147,174.49,266.147z M368.161,234.799c-1.635,0-3.286-0.492-4.714-1.516  c-3.659-2.611-4.5-7.686-1.889-11.337c2.96-4.147,5.714-8.504,8.167-12.944c2.159-3.925,7.103-5.357,11.039-3.186  c3.928,2.171,5.357,7.115,3.182,11.043c-2.754,4.988-5.833,9.881-9.167,14.539C373.193,233.616,370.701,234.799,368.161,234.799z   M140.895,231.172c-2.619,0-5.19-1.262-6.762-3.603c-3.182-4.75-6.111-9.746-8.706-14.841c-2.04-4-0.452-8.893,3.548-10.932  c4-2.056,8.897-0.444,10.928,3.552c2.309,4.528,4.913,8.956,7.738,13.174c2.492,3.726,1.5,8.778-2.23,11.274  C144.022,230.727,142.451,231.172,140.895,231.172z M389.042,191.018c-0.714,0-1.444-0.095-2.167-0.298  c-4.325-1.19-6.865-5.663-5.674-9.992c1.341-4.885,2.405-9.913,3.159-14.944c0.667-4.432,4.73-7.512,9.246-6.833  c4.436,0.663,7.492,4.801,6.833,9.238c-0.849,5.675-2.056,11.345-3.571,16.857C395.875,188.649,392.605,191.018,389.042,191.018z   M121.42,186.744c-3.667,0-7-2.504-7.897-6.23c-1.325-5.52-2.341-11.218-3.016-16.928c-0.524-4.456,2.659-8.5,7.119-9.028  c4.373-0.5,8.492,2.659,9.024,7.115c0.603,5.083,1.5,10.143,2.683,15.047c1.048,4.365-1.643,8.75-6.008,9.797  C122.689,186.672,122.047,186.744,121.42,186.744z M393.439,142.701c-4.182,0-7.73-3.202-8.087-7.444  c-0.429-5.059-1.159-10.151-2.175-15.131c-0.897-4.397,1.936-8.69,6.333-9.587c4.381-0.873,8.69,1.944,9.587,6.341  c1.143,5.599,1.968,11.321,2.444,17.012c0.381,4.472-2.936,8.405-7.413,8.782C393.899,142.693,393.669,142.701,393.439,142.701z   M118.562,138.328c-0.31,0-0.627-0.016-0.936-0.052c-4.46-0.516-7.659-4.548-7.143-9.008c0.659-5.694,1.659-11.397,2.984-16.944  c1.04-4.369,5.452-7.04,9.793-6.02c4.365,1.04,7.055,5.425,6.016,9.79c-1.175,4.921-2.063,9.98-2.651,15.039  C126.15,135.277,122.634,138.328,118.562,138.328z M380.947,95.853c-3.063,0-5.992-1.73-7.373-4.682  c-2.143-4.583-4.587-9.099-7.278-13.42c-2.365-3.809-1.198-8.821,2.611-11.19c3.817-2.369,8.825-1.198,11.198,2.611  c3.024,4.865,5.778,9.948,8.198,15.111c1.897,4.067,0.143,8.905-3.921,10.805C383.272,95.607,382.097,95.853,380.947,95.853z   M132.546,91.892c-1.238,0-2.492-0.282-3.675-0.881c-4-2.032-5.595-6.924-3.563-10.924c2.595-5.115,5.516-10.111,8.682-14.853  c2.492-3.734,7.524-4.754,11.278-2.246c3.73,2.492,4.738,7.54,2.246,11.27c-2.817,4.21-5.405,8.647-7.714,13.186  C138.364,90.269,135.515,91.892,132.546,91.892z M352.987,56.246c-2.063,0-4.135-0.786-5.722-2.353  c-3.603-3.567-7.46-6.968-11.476-10.103c-3.532-2.766-4.159-7.873-1.397-11.409c2.754-3.54,7.849-4.171,11.413-1.401  c4.508,3.528,8.849,7.353,12.905,11.365c3.182,3.159,3.206,8.305,0.048,11.492C357.169,55.445,355.082,56.246,352.987,56.246z   M161.776,53.175c-2.182,0-4.357-0.873-5.96-2.599c-3.048-3.29-2.857-8.432,0.429-11.484c4.19-3.881,8.643-7.563,13.254-10.936  c3.619-2.655,8.722-1.869,11.357,1.754c2.651,3.623,1.865,8.706-1.754,11.357c-4.103,3.008-8.071,6.282-11.793,9.738  C165.736,52.457,163.76,53.175,161.776,53.175z M313.075,28.675c-1.127,0-2.27-0.238-3.365-0.734  c-4.643-2.115-9.444-3.972-14.262-5.52c-4.278-1.369-6.635-5.944-5.262-10.218c1.373-4.27,5.96-6.643,10.214-5.258  c5.428,1.738,10.833,3.825,16.055,6.202c4.079,1.861,5.881,6.682,4.024,10.766C319.114,26.905,316.162,28.675,313.075,28.675z   M202.521,26.905c-3.175,0-6.19-1.877-7.5-4.992c-1.73-4.143,0.222-8.905,4.365-10.635c5.278-2.21,10.738-4.123,16.23-5.69  c4.325-1.214,8.817,1.274,10.047,5.591s-1.278,8.813-5.587,10.043c-4.881,1.389-9.73,3.087-14.42,5.048  C204.632,26.699,203.569,26.905,202.521,26.905z M266.107,16.644c-0.198,0-0.405-0.008-0.611-0.024  c-3.294-0.246-6.651-0.278-9.952-0.357c-1.794,0-3.571,0.04-5.341,0.115c-0.111,0.004-0.23,0.008-0.349,0.008  c-4.325,0-7.928-3.417-8.111-7.782c-0.19-4.484,3.286-8.274,7.778-8.464c2.079-0.091,4.095-0.167,6.278-0.131  c3.659,0,7.294,0.135,10.905,0.405c4.476,0.333,7.833,4.23,7.5,8.706C273.885,13.39,270.322,16.644,266.107,16.644z" fill="#e5f9ff"/><g><path d="M182.641,512c-4.489,0-8.127-3.639-8.127-8.127v-44.884c0-7.973-0.978-15.916-2.912-23.651   l-10.43-41.72c-1.934-7.735-2.912-15.678-2.912-23.651v-52.141c0-6.109,3.154-11.872,8.133-14.896   c-3.119-1.813-6.872-2.654-10.862-2.005c-7.992,1.3-13.525,8.804-13.525,16.901v52.141c0,7.973,0.978,15.916,2.912,23.651   l10.43,41.72c1.934,7.735,2.912,15.678,2.912,23.651v44.884c0,4.488,3.638,8.127,8.127,8.127h113.776l0,0H182.641z" fill="#5d5360"/><path d="M182.641,325.083c4.489,0,8.127-3.639,8.127-8.127V284.53c-0.9-0.001-1.8-0.011-2.729,0.14   c-7.992,1.3-13.525,8.804-13.525,16.901v15.385C174.514,321.444,178.152,325.083,182.641,325.083z" fill="#5d5360"/><path d="M215.148,316.956c4.489,0,8.127-3.639,8.127-8.127v-40.552c-0.9-0.001-1.8-0.011-2.729,0.14   c-7.992,1.3-13.525,8.804-13.525,16.901v15.385v8.127C207.021,313.317,210.66,316.956,215.148,316.956z" fill="#5d5360"/><path d="M247.655,300.702c4.489,0,8.127-3.639,8.127-8.127V130.12c-0.9-0.001-1.8-0.011-2.729,0.14   c-7.992,1.3-13.525,8.804-13.525,16.901v137.287v8.127C239.529,297.063,243.167,300.702,247.655,300.702z" fill="#5d5360"/><path d="M288.29,349.463v-48.679c-8.968,0.01-16.254,7.201-16.254,16.171v32.507   c0,4.488,3.638,8.127,8.127,8.127C284.651,357.59,288.29,353.951,288.29,349.463z" fill="#5d5360"/></g></g><g transform="matrix(-0.1171875 0 0 0.1171875 205 232.5)" id="L1_37"><path d="M361.651,479.492 321.016,463.238 321.016,503.873 361.651,503.873z" fill="#aea8af"/><path d="M304.762,390.095l22.756-17.067c6.139-4.604,9.752-11.831,9.752-19.505v-69.079h-32.508  L304.762,390.095L304.762,390.095z" fill="#dbd9dc"/><path d="M337.27,313.522c-4.984,2.181-10.466,3.431-16.254,3.431s-11.27-1.249-16.254-3.431v-29.077h32.508  V313.522z" fill="#c9c6ca"/><g><path d="M288.508,495.746h65.016v-5.536c0-3.254-1.937-6.187-4.921-7.472l-37.198-15.936   c-8.968-3.849-14.77-12.647-14.77-22.409V276.317h16.254v168.075c0,3.254,1.936,6.187,4.921,7.472l37.198,15.937   c8.968,3.849,14.77,12.647,14.77,22.409v5.536c0,8.964-7.294,16.254-16.254,16.254h-65.016c-4.492,0-8.127-3.639-8.127-8.127   S284.016,495.746,288.508,495.746z" fill="#9c969e"/><rect x="312px" y="186px" width="16px" height="73px" fill="#9c969e"/></g><rect x="312px" y="186px" width="16px" height="24px" fill="#867e88"/><g><circle cx="321" cy="276" r="24" fill="#aea8af"/><path d="M150.349,479.492 190.984,463.238 190.984,503.873 150.349,503.873z" fill="#aea8af"/></g><path d="M207.238,390.095l-22.756-17.067c-6.139-4.604-9.752-11.831-9.752-19.505v-69.079h32.508V390.095z" fill="#dbd9dc"/><path d="M174.73,313.522c4.984,2.181,10.466,3.431,16.254,3.431s11.27-1.249,16.254-3.431v-29.077H174.73  V313.522z" fill="#c9c6ca"/><g><path d="M223.492,495.746h-65.016v-5.536c0-3.254,1.937-6.187,4.921-7.472l37.198-15.936   c8.968-3.849,14.77-12.647,14.77-22.409V276.317h-16.254v168.075c0,3.254-1.937,6.187-4.921,7.472l-37.198,15.937   c-8.968,3.849-14.77,12.647-14.77,22.409v5.536c0,8.964,7.294,16.254,16.254,16.254h65.016c4.492,0,8.127-3.639,8.127-8.127   S227.984,495.746,223.492,495.746z" fill="#9c969e"/><rect x="182px" y="186px" width="16px" height="73px" fill="#9c969e"/></g><rect x="182px" y="186px" width="16px" height="24px" fill="#867e88"/><circle cx="190" cy="276" r="24" fill="#aea8af"/><g><path d="M163.519,4.494l23.831,47.662c2.359,4.718,6.185,8.544,10.903,10.903l30.23,15.115   c6.63,3.315,10.177,10.696,8.624,17.944l-18.989,88.617c-1.606,7.494-8.229,12.848-15.893,12.848h-22.057   c-7.855,0-14.587-5.618-15.992-13.346L135.619,27.169c-0.954-5.248,0.727-10.629,4.499-14.401l10.386-10.386   C154.426-1.541,161.038-0.468,163.519,4.494z" fill="#edebed"/><path d="M371.883,12.767L361.497,2.382c-3.923-3.922-10.535-2.849-13.016,2.112L324.65,52.155   c-2.359,4.719-6.185,8.545-10.903,10.904l-30.231,15.115c-6.63,3.315-10.177,10.695-8.624,17.943l18.99,88.617   c1.606,7.495,8.229,12.849,15.893,12.849h22.057c7.855,0,14.586-5.618,15.992-13.347l28.558-157.068   C377.335,21.921,375.654,16.539,371.883,12.767z" fill="#edebed"/></g><g><path d="M198.698,181.329c-7.855,0-14.586-5.618-15.992-13.347L152.057,1.166   c-0.549,0.333-1.072,0.734-1.554,1.215l-10.386,10.386c-3.771,3.772-5.452,9.153-4.499,14.401l28.558,157.068   c1.405,7.729,8.136,13.347,15.992,13.347h22.057c7.664,0,14.287-5.354,15.893-12.849l0.73-3.405H198.698z" fill="#dbd9dc"/><path d="M160.232,162.54l3.945,21.697c1.405,7.729,8.136,13.347,15.992,13.347h22.057   c7.664,0,14.287-5.354,15.893-12.849l4.756-22.195L160.232,162.54L160.232,162.54z" fill="#dbd9dc"/></g><path d="M164.177,184.237c1.405,7.729,8.136,13.347,15.992,13.347h22.057c7.664,0,14.287-5.354,15.893-12.849  l0.73-3.405H198.7c-7.855,0-14.586-5.618-15.992-13.347l-1-5.443h-21.475L164.177,184.237z" fill="#c9c6ca"/><g><path d="M327.29,181.329c-7.664,0-14.287-5.354-15.893-12.849l-18.99-88.617   c-0.44-2.054-0.43-4.107-0.097-6.086l-8.794,4.397c-6.63,3.315-10.177,10.695-8.624,17.943l18.99,88.617   c1.606,7.495,8.229,12.849,15.893,12.849h22.057c7.855,0,14.586-5.618,15.992-13.347l0.529-2.907L327.29,181.329L327.29,181.329z" fill="#dbd9dc"/><path d="M289.126,162.54l4.756,22.195c1.606,7.495,8.229,12.849,15.893,12.849h22.057   c7.855,0,14.586-5.618,15.992-13.347l3.945-21.697L289.126,162.54L289.126,162.54z" fill="#dbd9dc"/></g><path d="M293.882,184.735c1.606,7.495,8.229,12.849,15.893,12.849h22.057c7.855,0,14.586-5.618,15.992-13.347  l0.529-2.907H327.29c-7.664,0-14.287-5.354-15.893-12.849l-1.273-5.941h-20.998L293.882,184.735z" fill="#c9c6ca"/></g><g transform="matrix(0.11718841642141342 0 0 0.11718841642141342 86 181)" id="L1_38"><path d="M421.16,346.839H90.838c-13.682,0-24.774-11.092-24.774-24.774v-8.258h379.871v8.258  C445.934,335.747,434.842,346.839,421.16,346.839z" fill="#ccf4ef"/><rect x="247px" y="313px" width="16px" height="173px" fill="#c9c6ca"/><g><path d="M313.805,313.806 313.805,371.613 371.612,371.613 371.612,388.129 313.805,388.129    313.805,437.677 297.289,437.677 297.289,313.806z" fill="#dbd9dc"/><path d="M198.193,313.806 198.193,371.613 140.385,371.613 140.385,388.129 198.193,388.129    198.193,437.677 214.709,437.677 214.709,313.806z" fill="#dbd9dc"/></g><g><rect x="388px" y="231px" width="16px" height="82px" fill="#9c969e"/><path d="M156.902,8.258v305.548h198.194V8.258c0-4.561-3.697-8.258-8.258-8.258H165.16   C160.599,0,156.902,3.697,156.902,8.258z" fill="#9c969e"/></g><circle cx="255" cy="495" r="16" fill="#99e9df"/><g><circle cx="206" cy="445" r="16" fill="#4bd7c8"/><circle cx="305" cy="445" r="16" fill="#4bd7c8"/></g><g><circle cx="379" cy="379" r="16" fill="#99e9df"/><circle cx="132" cy="379" r="16" fill="#99e9df"/></g><path d="M181.676,264.258h-24.774v16.516h24.774c4.565,0,8.258-3.694,8.258-8.258  S186.241,264.258,181.676,264.258z" fill="#99e7ff"/><path d="M239.482,280.774h-24.774c-4.565,0-8.258-3.694-8.258-8.258c0-4.565,3.694-8.258,8.258-8.258h24.774  c4.565,0,8.258,3.694,8.258,8.258C247.741,277.081,244.047,280.774,239.482,280.774z" fill="#59d8ff"/><g><path d="M272.514,264.258c-4.565,0-8.258,3.694-8.258,8.258c0,4.565,3.694,8.258,8.258,8.258h82.581v-16.516   H272.514z" fill="#99e7ff"/><path d="M181.676,231.226h-24.774v16.516h24.774c4.565,0,8.258-3.694,8.258-8.258   S186.241,231.226,181.676,231.226z" fill="#99e7ff"/></g><path d="M239.482,247.742h-24.774c-4.565,0-8.258-3.694-8.258-8.258s3.694-8.258,8.258-8.258h24.774  c4.565,0,8.258,3.694,8.258,8.258S244.047,247.742,239.482,247.742z" fill="#59d8ff"/><g><path d="M272.514,231.226c-4.565,0-8.258,3.694-8.258,8.258s3.694,8.258,8.258,8.258h82.581v-16.516   L272.514,231.226L272.514,231.226z" fill="#99e7ff"/><path d="M330.322,198.194c-4.565,0-8.258,3.694-8.258,8.258s3.694,8.258,8.258,8.258h24.774v-16.516   L330.322,198.194L330.322,198.194z" fill="#99e7ff"/></g><path d="M297.289,214.71h-24.774c-4.565,0-8.258-3.694-8.258-8.258s3.694-8.258,8.258-8.258h24.774  c4.565,0,8.258,3.694,8.258,8.258S301.854,214.71,297.289,214.71z" fill="#59d8ff"/><g><path d="M239.482,198.194h-82.581v16.516h82.581c4.565,0,8.258-3.694,8.258-8.258   S244.047,198.194,239.482,198.194z" fill="#99e7ff"/><path d="M181.676,165.161h-24.774v16.516h24.774c4.565,0,8.258-3.694,8.258-8.258   S186.241,165.161,181.676,165.161z" fill="#99e7ff"/></g><path d="M239.482,181.677h-24.774c-4.565,0-8.258-3.694-8.258-8.258s3.694-8.258,8.258-8.258h24.774  c4.565,0,8.258,3.694,8.258,8.258S244.047,181.677,239.482,181.677z" fill="#59d8ff"/><g><path d="M272.514,165.161c-4.565,0-8.258,3.694-8.258,8.258s3.694,8.258,8.258,8.258h82.581v-16.516   L272.514,165.161L272.514,165.161z" fill="#99e7ff"/><path d="M181.676,132.129h-24.774v16.516h24.774c4.565,0,8.258-3.698,8.258-8.258   S186.241,132.129,181.676,132.129z" fill="#99e7ff"/></g><path d="M239.482,148.645h-24.774c-4.565,0-8.258-3.698-8.258-8.258s3.694-8.258,8.258-8.258h24.774  c4.565,0,8.258,3.698,8.258,8.258S244.047,148.645,239.482,148.645z" fill="#59d8ff"/><g><path d="M272.514,132.129c-4.565,0-8.258,3.698-8.258,8.258s3.694,8.258,8.258,8.258h82.581v-16.516   L272.514,132.129L272.514,132.129z" fill="#99e7ff"/><path d="M330.322,99.097c-4.565,0-8.258,3.698-8.258,8.258c0,4.56,3.694,8.258,8.258,8.258h24.774V99.097   H330.322z" fill="#99e7ff"/></g><path d="M297.289,115.613h-24.774c-4.565,0-8.258-3.698-8.258-8.258c0-4.56,3.694-8.258,8.258-8.258h24.774  c4.565,0,8.258,3.698,8.258,8.258S301.854,115.613,297.289,115.613z" fill="#59d8ff"/><g><path d="M239.482,99.097h-82.581v16.516h82.581c4.565,0,8.258-3.698,8.258-8.258   C247.741,102.794,244.047,99.097,239.482,99.097z" fill="#99e7ff"/><path d="M181.676,66.065h-24.774v16.516h24.774c4.565,0,8.258-3.698,8.258-8.258   C189.934,69.762,186.241,66.065,181.676,66.065z" fill="#99e7ff"/></g><path d="M239.482,82.581h-24.774c-4.565,0-8.258-3.698-8.258-8.258c0-4.56,3.694-8.258,8.258-8.258h24.774  c4.565,0,8.258,3.698,8.258,8.258S244.047,82.581,239.482,82.581z" fill="#59d8ff"/><g><path d="M272.514,66.065c-4.565,0-8.258,3.698-8.258,8.258c0,4.56,3.694,8.258,8.258,8.258h82.581V66.065   H272.514z" fill="#99e7ff"/><path d="M181.676,33.032h-24.774v16.516h24.774c4.565,0,8.258-3.698,8.258-8.258   S186.241,33.032,181.676,33.032z" fill="#99e7ff"/></g><path d="M239.482,49.548h-24.774c-4.565,0-8.258-3.698-8.258-8.258s3.694-8.258,8.258-8.258h24.774  c4.565,0,8.258,3.698,8.258,8.258S244.047,49.548,239.482,49.548z" fill="#59d8ff"/><path d="M272.514,33.032c-4.565,0-8.258,3.698-8.258,8.258s3.694,8.258,8.258,8.258h82.581V33.032H272.514z" fill="#99e7ff"/><path d="M155.215,200.34c1.943-5.817,2.31-12.352,0.559-19.129c-2.977-11.519-12.474-20.742-24.068-23.407  c-21.648-4.975-40.869,11.333-40.869,32.131c0,3.845,0.663,7.531,1.877,10.958c1.681,4.747,1.022,10.158-1.992,14.194  c-6.651,8.907-9.822,20.521-7.255,33.019c3.23,15.729,15.865,28.505,31.589,31.756c26.655,5.51,50.103-14.696,50.103-40.378  c0-9.145-3.033-17.526-8.096-24.333C153.919,210.923,153.546,205.338,155.215,200.34z" fill="#99e9df"/><path d="M139.831,271.604c-15.725-3.25-28.359-16.027-31.59-31.756c-2.567-12.497,0.604-24.112,7.256-33.019  c3.013-4.035,3.672-9.447,1.991-14.194c-1.214-3.427-1.877-7.113-1.877-10.958c0-9.799,4.299-18.566,11.076-24.614  c-19.51-1.612-35.85,13.701-35.85,32.872c0,3.845,0.663,7.531,1.877,10.958c1.681,4.747,1.022,10.158-1.991,14.194  c-6.651,8.907-9.822,20.522-7.256,33.019c3.23,15.728,15.865,28.505,31.59,31.756c12.637,2.612,24.516-0.602,33.554-7.393  C145.741,272.468,142.812,272.22,139.831,271.604z" fill="#4bd7c8"/><path d="M396.385,239.484L396.385,239.484c-9.122,0-16.516-7.395-16.516-16.516v-8.258  c0-4.561,3.697-8.258,8.258-8.258h16.516c4.561,0,8.258,3.697,8.258,8.258v8.258C412.902,232.089,405.508,239.484,396.385,239.484z" fill="#c9c6ca"/><path d="M123.87,322.065c-4.565,0-8.258-3.694-8.258-8.258V256c0-4.565,3.694-8.258,8.258-8.258  c4.565,0,8.258,3.694,8.258,8.258v57.806C132.128,318.371,128.434,322.065,123.87,322.065z" fill="#9c969e"/><path d="M454.193,322.065H57.805c-4.565,0-8.258-3.694-8.258-8.258s3.694-8.258,8.258-8.258h396.387  c4.565,0,8.258,3.694,8.258,8.258S458.757,322.065,454.193,322.065z" fill="#99e9df"/></g><g transform="matrix(0.1171875 0 0 0.1171875 301 229)" id="L1_39"><path d="M256,496L256,496c-22.091,0-40-17.909-40-40V352h80v104C296,478.091,278.091,496,256,496z" fill="#e5f9ff"/><path d="M256,408L256,408c-13.255,0-24-10.745-24-24v-32h48v32C280,397.255,269.255,408,256,408z" fill="#ffffff"/><path d="M424,168c-4.422,0-8,3.582-8,8v40h16v-40C432,171.582,428.422,168,424,168z" fill="#c9c6ca"/><path d="M392,280V160c0-4.418-3.582-8-8-8h-56v128H392z" fill="#9c969e"/><path d="M176,104c-4.422,0-8,3.582-8,8v40h16v-40C184,107.582,180.422,104,176,104z" fill="#c9c6ca"/><path d="M224,272h-80V160c0-4.418,3.582-8,8-8h72V272z" fill="#99e9df"/><path d="M104,280h72v-56c0-4.418-3.582-8-8-8h-64V280z" fill="#9c969e"/><path d="M40,280h72v-72c0-4.418-3.582-8-8-8H48c-4.418,0-8,3.582-8,8V280z" fill="#99e7ff"/><path d="M256,40l-43.314,43.314c-3.001,3.001-4.686,7.07-4.686,11.314V280h48V40z" fill="#59d8ff"/><path d="M256,0c-4.422,0-8,3.582-8,8v264h16V8C264,3.582,260.422,0,256,0z" fill="#c9c6ca"/><path d="M296,280h-56V120c0-4.418,3.582-8,8-8h48V280z" fill="#867e88"/><path d="M176,312l19.578,39.155c2.71,5.42,8.25,8.845,14.311,8.845h92.223c6.061,0,11.601-3.424,14.311-8.845  L336,312H176z" fill="#dbd9dc"/><path d="M24,280l11.578,23.155c2.71,5.42,8.25,8.845,14.311,8.845h412.223c6.061,0,11.601-3.424,14.311-8.845  L488,280H24z" fill="#b7b2b8"/><path d="M187.578,303.155L176,280H24l11.578,23.155c2.71,5.42,8.25,8.845,14.311,8.845h152  C195.828,312,190.288,308.576,187.578,303.155z" fill="#aea8af"/><path d="M239.109,328H328l8-16H176l19.578,39.155c2.71,5.421,8.251,8.845,14.311,8.845H240l-9.243-18.486  C227.652,335.305,232.167,328,239.109,328z" fill="#c9c6ca"/><path d="M296,80v192h40V119.69c0-4.861-2.209-9.458-6.005-12.494L296,80z" fill="#99e9df"/><path d="M256,512c-4.422,0-8-3.578-8-8V392c0-4.422,3.578-8,8-8s8,3.578,8,8v112  C264,508.422,260.422,512,256,512z" fill="#99e7ff"/><path d="M296,472c-4.422,0-8-3.578-8-8v-16c0-4.422,3.578-8,8-8s8,3.578,8,8v16  C304,468.422,300.422,472,296,472z" fill="#ccf3ff"/><path d="M296,424c-4.422,0-8-3.578-8-8v-24c0-4.422,3.578-8,8-8s8,3.578,8,8v24  C304,420.422,300.422,424,296,424z" fill="#99e7ff"/><path d="M216,472c-4.422,0-8-3.578-8-8v-16c0-4.422,3.578-8,8-8s8,3.578,8,8v16  C224,468.422,220.422,472,216,472z" fill="#ccf3ff"/><path d="M216,424c-4.422,0-8-3.578-8-8v-24c0-4.422,3.578-8,8-8s8,3.578,8,8v24  C224,420.422,220.422,424,216,424z" fill="#99e7ff"/><path d="M304,272h-16V56c0-4.418,3.582-8,8-8l0,0c4.418,0,8,3.582,8,8V272z" fill="#c9c6ca"/><path d="M368,280h104v-56c0-4.418-3.582-8-8-8h-88c-4.418,0-8,3.582-8,8V280z" fill="#99e7ff"/><path d="M504,288H8c-4.422,0-8-3.578-8-8s3.578-8,8-8h496c4.422,0,8,3.578,8,8S508.422,288,504,288z" fill="#c9c6ca"/><path d="M168,280c0-4.422,3.578-8,8-8H8c-4.422,0-8,3.578-8,8s3.578,8,8,8h168  C171.578,288,168,284.422,168,280z" fill="#b7b2b8"/></g><g transform="matrix(0.1171875 0 0 0.1171875 -21 144)" id="L1_40"><g><path d="M29.656,397.656l-11.313-11.313l64.969-64.969c5.953-5.957,14.195-9.375,22.625-9.375H152v16   h-46.063c-4.211,0-8.336,1.707-11.313,4.688L29.656,397.656z" fill="#dbd9dc"/><path d="M406.063,200H360v-16h46.063c4.211,0,8.336-1.707,11.313-4.688l64.969-64.969l11.313,11.313   l-64.969,64.969C422.734,196.582,414.492,200,406.063,200z" fill="#dbd9dc"/><path d="M200,152h-16v-46.059c0-4.27-1.664-8.289-4.688-11.316l-64.969-64.969l11.313-11.313l64.969,64.969   c6.047,6.051,9.375,14.086,9.375,22.629V152z" fill="#dbd9dc"/><path d="M386.344,493.656l-64.969-64.969c-6.047-6.051-9.375-14.086-9.375-22.629V360h16v46.059   c0,4.27,1.664,8.289,4.688,11.316l64.969,64.969L386.344,493.656z" fill="#dbd9dc"/></g><g><rect x="312px" y="40px" width="16px" height="112px" fill="#c9c6ca"/><rect x="184px" y="360px" width="16px" height="112px" fill="#c9c6ca"/><rect x="40px" y="184px" width="112px" height="16px" fill="#c9c6ca"/><rect x="360px" y="312px" width="112px" height="16px" fill="#c9c6ca"/></g><g><path d="M280,416V96c0-4.418,3.582-8,8-8l0,0c4.418,0,8,3.582,8,8v320c0,4.418-3.582,8-8,8l0,0   C283.582,424,280,420.418,280,416z" fill="#dbd9dc"/><path d="M216,416V96c0-4.418,3.582-8,8-8l0,0c4.418,0,8,3.582,8,8v320c0,4.418-3.582,8-8,8l0,0   C219.582,424,216,420.418,216,416z" fill="#dbd9dc"/></g><path d="M248,504V8c0-4.422,3.582-8,8-8s8,3.578,8,8v496c0,4.422-3.582,8-8,8S248,508.422,248,504z" fill="#c9c6ca"/><g><path d="M416,232H96c-4.418,0-8-3.582-8-8l0,0c0-4.418,3.582-8,8-8h320c4.418,0,8,3.582,8,8l0,0   C424,228.418,420.418,232,416,232z" fill="#dbd9dc"/><path d="M416,296H96c-4.418,0-8-3.582-8-8l0,0c0-4.418,3.582-8,8-8h320c4.418,0,8,3.582,8,8l0,0   C424,292.418,420.418,296,416,296z" fill="#dbd9dc"/></g><path d="M504,264H8c-4.422,0-8-3.582-8-8s3.578-8,8-8h496c4.422,0,8,3.582,8,8S508.422,264,504,264z" fill="#c9c6ca"/><path d="M344,376H168c-17.673,0-32-14.327-32-32V168c0-17.673,14.327-32,32-32h176c17.673,0,32,14.327,32,32  v176C376,361.673,361.673,376,344,376z" fill="#4bd7c8"/><path d="M344,360H168c-8.837,0-16-7.163-16-16V168c0-8.837,7.163-16,16-16h176c8.837,0,16,7.163,16,16v176  C360,352.837,352.837,360,344,360z" fill="#99e9df"/><path d="M336,236c0-16.092-11.721-29.589-27.732-34.186c0.434-1.897,0.732-3.828,0.732-5.814  c0-15.438-13.68-28-30.5-28c-8.898,0-16.922,3.516-22.5,9.117c-5.578-5.602-13.602-9.117-22.5-9.117c-16.82,0-30.5,12.563-30.5,28  c0,1.926,0.211,3.82,0.617,5.664C187.625,206.27,176,219.922,176,236c0,7.839,2.816,15.194,7.878,21.335  C178.943,263.842,176,271.637,176,280c0,12.815,6.814,24.771,18.028,32.25C194.179,329.776,209.796,344,229,344  c10.925,0,20.576-4.696,27-11.891c6.424,7.194,16.075,11.891,27,11.891c18.423,0,33.407-13.126,34.742-29.666  C328.969,307.784,336,296.353,336,284c0-8.941-3.742-17.48-10.195-24C332.258,253.48,336,244.941,336,236z M308.758,267.074  C315.797,270.789,320,277.117,320,284c0,4.925-2.229,9.617-5.979,13.232c-4.051-7.116-10.948-12.773-19.622-15.498  c-4.242-1.34-8.719,1.02-10.031,5.234c-1.32,4.215,1.023,8.707,5.234,10.031c7.414,2.328,12.398,8.355,12.398,15  c0,8.824-8.523,16-19,16s-19-7.176-19-16v-48c0-8.824,8.523-16,19-16c4.422,0,8-3.582,8-8s-3.578-8-8-8  c-7.011,0-13.518,1.938-19,5.197V228.5c0-4.418-3.578-8-8-8s-8,3.582-8,8v40.723c-2.357-1.398-4.86-2.627-7.602-3.488  c-4.242-1.332-8.719,1.023-10.031,5.234c-1.32,4.215,1.023,8.707,5.234,10.031c7.414,2.328,12.398,8.355,12.398,15v16  c0,8.824-8.523,16-19,16s-19-7.176-19-16c0-3.766,1.602-7.43,4.508-10.316c3.133-3.113,3.148-8.18,0.031-11.316  c-3.117-3.133-8.18-3.152-11.313-0.035c-1.66,1.652-3.057,3.468-4.289,5.366C194.571,291.375,192,285.819,192,280  c0-10.848,8.539-20.383,20.766-23.191c4.305-0.988,7-5.281,6.008-9.586c-0.992-4.309-5.297-6.98-9.586-6.008  c-4.902,1.125-9.432,2.975-13.47,5.4c-2.4-3.163-3.718-6.813-3.718-10.615c0-10.922,10.344-19.828,23.133-19.996  c1.648,0.07,3.313-0.352,4.773-1.316c3.383-2.227,4.563-6.641,2.75-10.266c-0.32-0.637-0.719-1.219-1.172-1.734  C220.32,201.258,219,198.984,219,196c0-6.617,6.508-12,14.5-12s14.5,5.383,14.5,12c0,4.418,3.578,8,8,8s8-3.582,8-8  c0-6.617,6.508-12,14.5-12s14.5,5.383,14.5,12c0,1.744-0.464,3.216-1.07,4.448c-4.146,0.437-8.206,1.26-12.023,2.869  c-4.07,1.715-5.977,6.406-4.266,10.48c1.719,4.074,6.422,5.984,10.484,4.262c3.242-1.367,6.734-2.059,10.375-2.059  c12.961,0,23.5,8.973,23.5,20c0,6.883-4.203,13.211-11.242,16.926c-2.625,1.383-4.266,4.109-4.266,7.074  S306.133,265.691,308.758,267.074z" fill="#ccf4ef"/><g><circle cx="40" cy="192" r="16" fill="#4bd7c8"/><circle cx="472" cy="320" r="16" fill="#4bd7c8"/></g><g><circle cx="24" cy="392" r="16" fill="#99e9df"/><circle cx="488" cy="120" r="16" fill="#99e9df"/></g><g><circle cx="320" cy="40" r="16" fill="#4bd7c8"/><circle cx="192" cy="472" r="16" fill="#4bd7c8"/></g><g><circle cx="120" cy="24" r="16" fill="#99e9df"/><circle cx="392" cy="488" r="16" fill="#99e9df"/></g></g><g transform="matrix(0.07836187619096564 0.008706875264160968 -0.008706875264160968 0.07836187619096564 38.1629232629995 91.68654182288864)" id="L1_41"><path d="M437.677,156.904c-0.162,0-0.319,0.023-0.48,0.024c-4.101-37.168-35.581-66.089-73.842-66.089  c-5.73,0-11.285,0.71-16.643,1.938c-22.562-40.542-65.797-68.003-115.486-68.003c-68.015,0-123.976,51.408-131.273,117.478  c-5.605-1.201-11.409-1.865-17.372-1.865C36.973,140.388,0,177.36,0,222.969c0,45.608,36.973,82.581,82.581,82.581h355.097  c41.047,0,74.323-33.276,74.323-74.323C512,190.179,478.725,156.904,437.677,156.904z" fill="#edebed"/><path d="M165.161,272.517c-45.608,0-82.581-36.973-82.581-82.581c0-17.919,5.768-34.457,15.464-47.991  c-5.019-0.959-10.166-1.557-15.464-1.557C36.973,140.388,0,177.36,0,222.969c0,45.608,36.973,82.581,82.581,82.581h355.097  c25.765,0,48.456-13.119,61.79-33.032H165.161V272.517z" fill="#dbd9dc"/><path d="M189.935,239.485 189.935,346.84 115.613,346.84 115.613,363.356 189.935,363.356   189.935,421.162 206.452,421.162 206.452,239.485z" fill="#c9c6ca"/><circle cx="198" cy="421" r="16" fill="#99e9df"/><circle cx="115" cy="355" r="16" fill="#4bd7c8"/><path d="M305.548,239.485 305.548,346.84 379.871,346.84 379.871,363.356 305.548,363.356   305.548,421.162 289.032,421.162 289.032,239.485z" fill="#c9c6ca"/><circle cx="297" cy="421" r="16" fill="#99e9df"/><circle cx="379" cy="355" r="16" fill="#4bd7c8"/><rect x="239px" y="239px" width="16px" height="231px" fill="#b7b2b8"/><circle cx="247" cy="470" r="16" fill="#4bd7c8"/><path d="M297.29,256.001h-99.097c-9.122,0-16.516-7.395-16.516-16.516v-99.097  c0-9.122,7.395-16.516,16.516-16.516h99.097c9.122,0,16.516,7.395,16.516,16.516v99.097  C313.806,248.606,306.412,256.001,297.29,256.001z" fill="#b7b2b8"/><path d="M280.774,231.227H214.71c-4.561,0-8.258-3.697-8.258-8.258v-66.065c0-4.561,3.697-8.258,8.258-8.258  h66.065c4.561,0,8.258,3.697,8.258,8.258v66.065C289.032,227.53,285.335,231.227,280.774,231.227z" fill="#4bd7c8"/><rect x="222px" y="165px" width="49px" height="49px" fill="#99e9df"/></g><g transform="matrix(0.1171875 0 0 0.1171875 41.00000137329101 276)" id="L1_42"><path d="M355.097,437.677l40.61-108.293c5.911-15.762,8.939-32.459,8.939-49.293v-81.898  c0-10.031-8.943-17.973-19.29-16.29c-8.12,1.321-13.742,8.947-13.742,17.174v48.664c0,9.122-7.395,16.516-16.516,16.516l0,0  c-9.122,0-16.516-7.395-16.516-16.516V214.71V50.433c0-8.227-5.622-15.853-13.742-17.174c-10.348-1.684-19.29,6.258-19.29,16.29  v140.387c0,9.122-7.395,16.516-16.516,16.516l0,0c-9.122,0-16.516-7.395-16.516-16.516V17.401c0-8.227-5.622-15.853-13.742-17.174  c-10.348-1.684-19.29,6.258-19.29,16.29v173.419c0,9.122-7.395,16.516-16.516,16.516l0,0c-9.122,0-16.516-7.395-16.516-16.516  V50.433c0-8.227-5.622-15.853-13.742-17.174c-10.348-1.684-19.29,6.258-19.29,16.29V214.71c0,9.122-7.395,16.516-16.516,16.516l0,0  c-9.122,0-16.516-7.395-16.516-16.516V108.239c0-8.227-5.622-15.853-13.742-17.174c-10.348-1.684-19.29,6.258-19.29,16.29v142.869  c0,20.247,3.103,40.375,9.2,59.682l40.349,127.771" fill="#9c969e"/><g><path d="M305.548,206.452c9.121,0,16.516-7.395,16.516-16.516V49.548c0-6.101,3.332-11.393,8.251-14.253   c-1.646-1-3.484-1.713-5.477-2.037c-10.348-1.683-19.29,6.258-19.29,16.29v140.387c0,6.098-3.342,11.364-8.258,14.225   C299.728,205.58,302.525,206.452,305.548,206.452z" fill="#867e88"/><path d="M239.484,206.452c9.121,0,16.516-7.395,16.516-16.516V16.516c0-6.101,3.332-11.393,8.252-14.253   c-1.646-1-3.484-1.713-5.477-2.037c-10.348-1.683-19.29,6.258-19.29,16.29v173.419c0,6.098-3.342,11.364-8.258,14.225   C233.663,205.58,236.46,206.452,239.484,206.452z" fill="#867e88"/><path d="M371.613,264.258c9.121,0,16.516-7.395,16.516-16.516v-48.664c0-6.208,3.206-12.064,8.264-15.137   c-3.169-1.843-6.984-2.697-11.038-2.037c-8.121,1.321-13.742,8.947-13.742,17.174v48.664c0,6.098-3.343,11.364-8.258,14.225   C365.792,263.386,368.589,264.258,371.613,264.258z" fill="#867e88"/><path d="M173.419,231.226c9.121,0,16.516-7.395,16.516-16.516V49.548c0-6.101,3.332-11.393,8.252-14.253   c-1.646-1-3.484-1.713-5.477-2.037c-10.348-1.683-19.29,6.258-19.29,16.29V214.71c0,6.098-3.342,11.364-8.258,14.225   C167.599,230.354,170.396,231.226,173.419,231.226z" fill="#867e88"/><path d="M123.871,250.224V107.355c0-6.101,3.332-11.393,8.252-14.253c-1.646-1-3.484-1.713-5.477-2.037   c-10.348-1.683-19.29,6.258-19.29,16.29v142.869c0,20.247,3.102,40.375,9.2,59.682l40.349,127.771h16.516l-40.349-127.771   C126.973,290.599,123.871,270.471,123.871,250.224z" fill="#867e88"/><path d="M355.097,512H156.903c-4.561,0-8.258-3.697-8.258-8.258v-66.065c0-4.561,3.697-8.258,8.258-8.258   h198.194c4.561,0,8.258,3.697,8.258,8.258v66.065C363.355,508.303,359.658,512,355.097,512z" fill="#867e88"/></g><g><path d="M322.065,470.71c0,22.766-18.524,41.29-41.29,41.29h40.376c10.738-10.502,17.43-25.122,17.43-41.29   s-6.693-30.788-17.43-41.29h-40.376C303.54,429.419,322.065,447.944,322.065,470.71z" fill="#6f6571"/><path d="M181.677,503.742v-66.065c0-4.561,3.697-8.258,8.258-8.258h-33.032   c-4.561,0-8.258,3.697-8.258,8.258v66.065c0,4.56,3.697,8.258,8.258,8.258h33.032C185.374,512,181.677,508.302,181.677,503.742z" fill="#6f6571"/><path d="M148.645,478.968h90.839c4.561,0,8.258-3.697,8.258-8.258l0,0c0-4.561-3.697-8.258-8.258-8.258   h-90.839L148.645,478.968L148.645,478.968z" fill="#6f6571"/></g><g><rect x="148px" y="462px" width="33px" height="16px" fill="#5d5360"/><path d="M280.774,478.968h16.516c4.561,0,8.258-3.697,8.258-8.258l0,0c0-4.561-3.697-8.258-8.258-8.258   h-16.516c-4.561,0-8.258,3.697-8.258,8.258l0,0C272.516,475.27,276.213,478.968,280.774,478.968z" fill="#5d5360"/></g><g><path d="M189.935,313.806h24.774v115.613h16.516V204.161c-2.438,1.419-5.234,2.291-8.258,2.291   s-5.821-0.872-8.258-2.291v93.13h-24.774c-13.661,0-24.774-11.113-24.774-24.774v-43.581c-2.438,1.419-5.234,2.291-8.258,2.291   s-5.821-0.872-8.258-2.291v43.581C148.645,295.282,167.169,313.806,189.935,313.806z" fill="#59d8ff"/><path d="M363.355,261.967c-2.438,1.419-5.234,2.291-8.258,2.291s-5.821-0.872-8.258-2.291v10.549   c0,13.661-11.113,24.774-24.774,24.774H297.29v-93.13c-2.438,1.419-5.234,2.291-8.258,2.291s-5.821-0.872-8.258-2.291v225.259   h16.516V313.806h24.774c22.766,0,41.29-18.524,41.29-41.29v-10.549H363.355z" fill="#59d8ff"/></g><path d="M313.806,396.387H198.194c-9.122,0-16.516-7.395-16.516-16.516v-16.516  c0-9.122,7.395-16.516,16.516-16.516h115.613c9.122,0,16.516,7.395,16.516,16.516v16.516  C330.323,388.993,322.928,396.387,313.806,396.387z" fill="#99e7ff"/><path d="M305.548,379.871h-99.097c-4.561,0-8.258-3.697-8.258-8.258l0,0c0-4.561,3.697-8.258,8.258-8.258  h99.097c4.561,0,8.258,3.697,8.258,8.258l0,0C313.806,376.174,310.109,379.871,305.548,379.871z" fill="#ccf3ff"/><path d="M140.387,132.129v-23.89c0-8.227-5.621-15.853-13.742-17.174c-10.348-1.683-19.29,6.258-19.29,16.29  v24.774H140.387z" fill="#99e7ff"/><path d="M123.871,132.129v-24.774c0-6.101,3.332-11.393,8.252-14.253c-1.646-1-3.484-1.713-5.477-2.037  c-10.348-1.683-19.29,6.258-19.29,16.29v24.774H123.871z" fill="#59d8ff"/><path d="M206.452,74.322v-23.89c0-8.227-5.621-15.853-13.742-17.174c-10.348-1.683-19.29,6.258-19.29,16.29  v24.774H206.452z" fill="#99e7ff"/><path d="M189.935,74.322V49.548c0-6.101,3.332-11.393,8.252-14.253c-1.646-1-3.484-1.713-5.477-2.037  c-10.348-1.683-19.29,6.258-19.29,16.29v24.774H189.935z" fill="#59d8ff"/><path d="M272.516,41.29V17.4c0-8.227-5.621-15.853-13.742-17.174c-10.348-1.683-19.29,6.258-19.29,16.29  V41.29H272.516z" fill="#99e7ff"/><path d="M256,41.29V16.516c0-6.101,3.332-11.393,8.252-14.253c-1.646-1-3.484-1.713-5.477-2.037  c-10.348-1.683-19.29,6.258-19.29,16.29V41.29H256z" fill="#59d8ff"/><path d="M338.581,74.322v-23.89c0-8.227-5.621-15.853-13.742-17.174c-10.348-1.683-19.29,6.258-19.29,16.29  v24.774H338.581z" fill="#99e7ff"/><path d="M322.065,74.322V49.548c0-6.101,3.332-11.393,8.251-14.253c-1.646-1-3.484-1.713-5.477-2.037  c-10.348-1.683-19.29,6.258-19.29,16.29v24.774H322.065z" fill="#59d8ff"/><path d="M404.645,222.968v-23.89c0-8.227-5.621-15.853-13.742-17.174c-10.348-1.683-19.29,6.258-19.29,16.29  v24.774H404.645z" fill="#99e7ff"/><path d="M388.129,222.968v-24.774c0-6.101,3.332-11.393,8.252-14.253c-1.646-1-3.484-1.713-5.477-2.037  c-10.348-1.683-19.29,6.258-19.29,16.29v24.774H388.129z" fill="#59d8ff"/></g><g transform="matrix(0.1171875 0 0 0.1171875 114 -17)" id="L1_43"><path d="M451.429,43.067L367.987,8.708C354.024,2.958,339.069,0,323.968,0H188.032  c-15.101,0-30.056,2.958-44.02,8.708L60.571,43.067c-21.66,8.919-35.797,30.028-35.797,53.452v298.415  c0,6.607,3.938,12.578,10.01,15.18l64.313,27.563v57.806c0,9.121,7.395,16.516,16.516,16.516h280.774  c9.121,0,16.516-7.395,16.516-16.516v-57.806l64.313-27.563c6.073-2.602,10.01-8.574,10.01-15.18V96.519  C487.226,73.094,473.089,51.985,451.429,43.067z" fill="#edebed"/><path d="M255.976,115.613c17.843-7.706,69.475-35.655,101.927-110.491C346.924,1.749,335.492,0,323.968,0  H188.032c-11.54,0-22.987,1.756-33.979,5.137C186.475,79.871,238.024,107.857,255.976,115.613z" fill="#dbd9dc"/><path d="M367.987,8.708c-8.532-3.513-17.455-5.851-26.534-7.241c-26.808,59.668-66.455,86.138-85.477,95.88  c-19.019-9.745-58.707-36.22-85.503-95.869c-9.053,1.393-17.952,3.727-26.46,7.23l-5.431,2.236  c34.063,79.281,88.289,110.085,110.846,119.83c2.089,0.903,4.315,1.355,6.548,1.355c2.226,0,4.46-0.452,6.548-1.351  c22.592-9.756,76.791-40.53,110.85-119.852L367.987,8.708z" fill="#99e9df"/><g><path d="M82.581,132.129v298.47l16.516,7.079V132.129c0-4.561-3.697-8.258-8.258-8.258l0,0   C86.278,123.871,82.581,127.568,82.581,132.129z" fill="#dbd9dc"/><path d="M429.419,132.129v298.47l-16.516,7.079V132.129c0-4.561,3.697-8.258,8.258-8.258l0,0   C425.722,123.871,429.419,127.568,429.419,132.129z" fill="#dbd9dc"/></g><rect x="99px" y="272px" width="239px" height="16px" fill="#c9c6ca"/><circle cx="346" cy="280" r="16" fill="#4bd7c8"/><path d="M224.387,256H99.097v-16.516h125.29c2.169,0,4.298-0.879,5.839-2.419l36.452-36.452l11.677,11.677  l-36.452,36.452C237.226,253.419,231,256,224.387,256z" fill="#c9c6ca"/><circle cx="280" cy="198" r="16" fill="#99e9df"/><path d="M266.677,360.935l-36.452-36.452c-1.54-1.54-3.669-2.419-5.839-2.419H99.097v-16.516h125.29  c6.613,0,12.839,2.581,17.516,7.258l36.452,36.452L266.677,360.935z" fill="#c9c6ca"/><g><circle cx="280" cy="363" r="16" fill="#99e9df"/><path d="M24.774,394.934c0,6.607,3.938,12.578,10.01,15.18l64.313,27.563v-36.645l-74.323-31.853   C24.774,369.179,24.774,394.934,24.774,394.934z" fill="#99e9df"/></g><path d="M82.581,430.599 99.097,437.677 99.097,401.032 82.581,393.954z" fill="#4bd7c8"/><path d="M487.226,394.934c0,6.607-3.938,12.578-10.01,15.18l-64.313,27.563v-36.645l74.323-31.853V394.934z" fill="#99e9df"/><path d="M429.419,430.599 412.903,437.677 412.903,401.032 429.419,393.954z" fill="#4bd7c8"/><path d="M99.097,478.968v16.516c0,9.121,7.395,16.516,16.516,16.516h280.774  c9.121,0,16.516-7.395,16.516-16.516v-16.516H99.097z" fill="#99e9df"/><path d="M255.977,78.422C273.072,68.032,302.298,44.888,323.869,0H188.051  C209.61,44.866,238.864,68.023,255.977,78.422z" fill="#c9c6ca"/></g><g transform="matrix(0.1171875 0 0 0.1171875 162 129)" id="L1_44"><path d="M239.746,512H174.73c-4.492,0-8.127-3.639-8.127-8.127v-8.127c0-17.925,14.579-32.508,32.508-32.508  h16.254c4.492,0,8.127,3.639,8.127,8.127s-3.635,8.127-8.127,8.127h-16.254c-8.96,0-16.254,7.29-16.254,16.254h56.889  c4.492,0,8.127,3.639,8.127,8.127S244.238,512,239.746,512z" fill="#9c969e"/><path d="M178.805,470.565c2.634,4.834,6.369,8.946,10.991,11.9c2.643-1.86,5.846-2.973,9.315-2.973h16.254  c4.492,0,8.127-3.639,8.127-8.127s-3.635-8.127-8.127-8.127h-16.254C191.391,463.238,184.387,466.055,178.805,470.565z" fill="#867e88"/><rect x="207px" y="349px" width="16px" height="48px" fill="#9c969e"/><rect x="207px" y="349px" width="16px" height="24px" fill="#867e88"/><rect x="215px" y="219px" width="81px" height="56px" fill="#9c969e"/><rect x="215px" y="219px" width="81px" height="24px" fill="#867e88"/><path d="M352.945,102.631l32.508,81.27c0.381,0.96,0.579,1.984,0.579,3.02v97.524h-16.254v-95.96  l-31.929-79.813L352.945,102.631z" fill="#9c969e"/><path d="M337.849,108.671 352.945,102.631 365.185,133.231 352.678,145.738z" fill="#867e88"/><g><path d="M377.901,251.932L377.901,251.932c-8.977,0-16.254-7.277-16.254-16.254v-48.762   c0-8.977,7.277-16.254,16.254-16.254l0,0c8.977,0,16.254,7.277,16.254,16.254v48.762   C394.155,244.655,386.878,251.932,377.901,251.932z" fill="#edebed"/><path d="M377.905,308.821L377.905,308.821c-8.977,0-16.254-7.277-16.254-16.254l0,0   c0-8.977,7.277-16.254,16.254-16.254l0,0c8.977,0,16.254,7.277,16.254,16.254l0,0C394.159,301.544,386.881,308.821,377.905,308.821   z" fill="#edebed"/></g><g><path d="M377.901,235.678v-48.762c0-6.001,3.289-11.184,8.127-14c-2.399-1.396-5.151-2.254-8.127-2.254   c-8.977,0-16.254,7.277-16.254,16.254v48.762c0,8.977,7.277,16.254,16.254,16.254c2.976,0,5.728-0.858,8.127-2.254   C381.19,246.862,377.901,241.679,377.901,235.678z" fill="#dbd9dc"/><path d="M390.095,296.63c-8.977,0-16.254-7.277-16.254-16.254c0-1.25,0.171-2.455,0.438-3.625   c-7.226,1.652-12.629,8.089-12.629,15.815c0,8.977,7.277,16.254,16.254,16.254c7.726,0,14.164-5.403,15.815-12.629   C392.55,296.459,391.346,296.63,390.095,296.63z" fill="#dbd9dc"/></g><path d="M159.056,102.631l-32.508,81.27c-0.381,0.96-0.579,1.984-0.579,3.02v97.524h16.254v-95.96  l31.929-79.813L159.056,102.631z" fill="#9c969e"/><path d="M174.151,108.671 159.056,102.631 146.816,133.231 159.323,145.738z" fill="#867e88"/><path d="M345.397,81.27H166.603c-8.977,0-16.254,7.277-16.254,16.254v6.155c0,6.466,2.569,12.668,7.141,17.24  l18.226,18.226c4.572,4.572,10.774,7.141,17.24,7.141h126.088c6.466,0,12.668-2.569,17.24-7.141l18.226-18.226  c4.572-4.572,7.141-10.774,7.141-17.24v-6.155C361.651,88.547,354.374,81.27,345.397,81.27z" fill="#edebed"/><path d="M360.935,93.005c-1.032,4.372-3.196,8.432-6.425,11.66l-18.226,18.226  c-4.572,4.572-10.774,7.141-17.24,7.141H192.956c-6.466,0-12.667-2.569-17.24-7.141l-18.226-18.226  c-3.228-3.228-5.392-7.288-6.425-11.66c-0.42,1.444-0.716,2.94-0.716,4.519v6.155c0,6.466,2.569,12.668,7.141,17.24l18.226,18.226  c4.101,4.101,9.531,6.477,15.268,6.946v65.211c0,8.977,7.277,16.254,16.254,16.254h97.524c8.977,0,16.254-7.277,16.254-16.254  v-65.211c5.737-0.47,11.168-2.846,15.268-6.946l18.226-18.226c4.572-4.572,7.141-10.774,7.141-17.24v-6.155  C361.651,95.944,361.355,94.449,360.935,93.005z" fill="#dbd9dc"/><g><path d="M292.428,19.599C290.149,8.203,280.143,0,268.521,0H243.48c-11.622,0-21.628,8.203-23.907,19.599   L207.238,81.27h97.524L292.428,19.599z" fill="#edebed"/><path d="M134.095,251.937L134.095,251.937c-8.977,0-16.254-7.277-16.254-16.254v-48.762   c0-8.977,7.277-16.254,16.254-16.254l0,0c8.977,0,16.254,7.277,16.254,16.254v48.762   C150.349,244.659,143.072,251.937,134.095,251.937z" fill="#edebed"/><path d="M134.095,308.825L134.095,308.825c-8.977,0-16.254-7.277-16.254-16.254l0,0   c0-8.977,7.277-16.254,16.254-16.254l0,0c8.977,0,16.254,7.277,16.254,16.254l0,0C150.349,301.548,143.072,308.825,134.095,308.825   z" fill="#edebed"/></g><g><path d="M288.508,195.048h-65.016c-4.492,0-8.127-3.639-8.127-8.127s3.635-8.127,8.127-8.127h65.016   c4.492,0,8.127,3.639,8.127,8.127S293,195.048,288.508,195.048z" fill="#c9c6ca"/><rect x="190px" y="146px" width="130px" height="16px" fill="#c9c6ca"/></g><g><path d="M134.095,235.683v-48.762c0-6.001,3.289-11.184,8.127-14c-2.399-1.396-5.151-2.254-8.127-2.254   c-8.977,0-16.254,7.277-16.254,16.254v48.762c0,8.977,7.277,16.254,16.254,16.254c2.976,0,5.728-0.858,8.127-2.254   C137.385,246.867,134.095,241.684,134.095,235.683z" fill="#dbd9dc"/><path d="M146.286,296.635c-8.977,0-16.254-7.277-16.254-16.254c0-1.25,0.171-2.455,0.438-3.625   c-7.226,1.652-12.629,8.089-12.629,15.815c0,8.977,7.277,16.254,16.254,16.254c7.726,0,14.164-5.403,15.815-12.629   C148.741,296.464,147.536,296.635,146.286,296.635z" fill="#dbd9dc"/></g><path d="M223.492,357.587h-16.254c-8.977,0-16.254-7.277-16.254-16.254v-65.016  c0-8.977,7.277-16.254,16.254-16.254h16.254c8.977,0,16.254,7.277,16.254,16.254v65.016  C239.746,350.31,232.469,357.587,223.492,357.587z" fill="#edebed"/><path d="M207.238,341.333v-65.016c0-8.977,7.277-16.254,16.254-16.254h-16.254  c-8.977,0-16.254,7.277-16.254,16.254v65.016c0,8.977,7.277,16.254,16.254,16.254h16.254  C214.516,357.587,207.238,350.31,207.238,341.333z" fill="#dbd9dc"/><path d="M223.492,471.365h-16.254c-8.977,0-16.254-7.277-16.254-16.254v-48.762  c0-8.977,7.277-16.254,16.254-16.254h16.254c8.977,0,16.254,7.277,16.254,16.254v48.762  C239.746,464.088,232.469,471.365,223.492,471.365z" fill="#edebed"/><path d="M207.238,455.111v-48.762c0-8.977,7.277-16.254,16.254-16.254h-16.254  c-8.977,0-16.254,7.277-16.254,16.254v48.762c0,8.977,7.277,16.254,16.254,16.254h16.254  C214.516,471.365,207.238,464.088,207.238,455.111z" fill="#dbd9dc"/><path d="M272.254,512h65.016c4.492,0,8.127-3.639,8.127-8.127v-8.127c0-17.925-14.579-32.508-32.508-32.508  h-16.254c-4.492,0-8.127,3.639-8.127,8.127s3.635,8.127,8.127,8.127h16.254c8.96,0,16.254,7.29,16.254,16.254h-56.889  c-4.492,0-8.127,3.639-8.127,8.127S267.762,512,272.254,512z" fill="#9c969e"/><path d="M333.195,470.565c-2.634,4.834-6.369,8.946-10.991,11.9c-2.643-1.86-5.846-2.973-9.315-2.973h-16.254  c-4.492,0-8.127-3.639-8.127-8.127s3.635-8.127,8.127-8.127h16.254C320.609,463.238,327.614,466.055,333.195,470.565z" fill="#867e88"/><rect x="288px" y="349px" width="16px" height="48px" fill="#9c969e"/><rect x="288px" y="349px" width="16px" height="24px" fill="#867e88"/><path d="M304.753,357.583h-16.254c-8.977,0-16.254-7.277-16.254-16.254v-65.016  c0-8.977,7.277-16.254,16.254-16.254h16.254c8.977,0,16.254,7.277,16.254,16.254v65.016  C321.007,350.306,313.73,357.583,304.753,357.583z" fill="#edebed"/><path d="M288.499,341.329v-65.016c0-8.977,7.277-16.254,16.254-16.254h-16.254  c-8.977,0-16.254,7.277-16.254,16.254v65.016c0,8.977,7.277,16.254,16.254,16.254h16.254  C295.777,357.583,288.499,350.305,288.499,341.329z" fill="#dbd9dc"/><path d="M304.753,471.36h-16.254c-8.977,0-16.254-7.277-16.254-16.254v-48.762  c0-8.977,7.277-16.254,16.254-16.254h16.254c8.977,0,16.254,7.277,16.254,16.254v48.762  C321.007,464.083,313.73,471.36,304.753,471.36z" fill="#edebed"/><g><path d="M288.499,455.106v-48.762c0-8.977,7.277-16.254,16.254-16.254h-16.254   c-8.977,0-16.254,7.277-16.254,16.254v48.762c0,8.977,7.277,16.254,16.254,16.254h16.254   C295.777,471.36,288.499,464.083,288.499,455.106z" fill="#dbd9dc"/><path d="M301.512,65.016h-56.728c-5.129,0-8.975-4.692-7.969-9.721l7.139-35.696   C246.232,8.203,256.239,0,267.861,0H243.48c-11.622,0-21.628,8.203-23.907,19.599L207.238,81.27h97.524L301.512,65.016z" fill="#dbd9dc"/></g><path d="M272.254,48.762h-32.508c-4.492,0-8.127-3.639-8.127-8.127s3.635-8.127,8.127-8.127h32.508  c4.492,0,8.127,3.639,8.127,8.127S276.746,48.762,272.254,48.762z" fill="#59d8ff"/><g><circle cx="239" cy="40" r="8" fill="#99e7ff"/><circle cx="272" cy="40" r="8" fill="#99e7ff"/></g></g><g transform="matrix(0.11718818545341492 0 0 0.11718818545341492 3 18)" id="L1_45"><path d="M363.354,338.582h-214.71c-13.682,0-24.774-11.092-24.774-24.774v-8.258h264.258v8.258  C388.128,327.49,377.035,338.582,363.354,338.582z" fill="#ccf4ef"/><g><path d="M181.675,404.646h-33.032V388.13h29.613l36.452-36.452v-46.129h16.516v49.548   c0,2.194-0.871,4.29-2.419,5.839l-41.29,41.29C185.966,403.775,183.869,404.646,181.675,404.646z" fill="#c9c6ca"/><path d="M363.354,404.646h-33.032c-2.194,0-4.29-0.871-5.839-2.419l-41.29-41.29   c-1.548-1.548-2.419-3.645-2.419-5.839V305.55h16.516v46.129l36.452,36.452h29.613v16.515H363.354z" fill="#c9c6ca"/></g><path d="M256.003,0.001c-3.735,0-7.552,0.354-11.421,1.094c-22.565,4.316-40.756,22.452-45.225,44.987  c-1.824,9.196-1.441,18.085,0.696,26.267c2.982,11.414,2.113,23.731-4.713,33.352c-8.604,12.127-13.663,26.944-13.663,42.946  c0,41.047,33.276,74.323,74.321,74.323c41.048,0.001,74.324-33.275,74.324-74.323c0-16.002-5.059-30.819-13.663-42.946  c-6.827-9.621-7.695-21.938-4.713-33.352c2.137-8.181,2.52-17.071,0.696-26.267c-4.469-22.536-22.659-40.671-45.225-44.987  C263.547,0.355,259.729,0.001,256.003,0.001z" fill="#99e9df"/><path d="M297.288,206.453c-41.045,0.001-74.321-33.275-74.321-74.323c0-16.002,5.059-30.82,13.663-42.946  c6.827-9.621,7.695-21.938,4.714-33.352c-2.138-8.181-2.52-17.071-0.696-26.267c2.255-11.373,8.02-21.61,16.064-29.531  C256.478,0.031,256.236,0,256.003,0c-3.735-0.001-7.552,0.354-11.42,1.093c-22.566,4.316-40.756,22.452-45.225,44.987  c-1.824,9.196-1.442,18.085,0.696,26.267c2.981,11.414,2.113,23.731-4.714,33.352c-8.604,12.126-13.663,26.944-13.663,42.946  c0,41.047,33.276,74.323,74.321,74.323c17.86,0,34.241-6.309,47.057-16.807C301.146,206.308,299.234,206.453,297.288,206.453z" fill="#4bd7c8"/><path d="M286.612,126.291c-3.226-3.226-8.452-3.226-11.677,0l-10.677,10.677v-21.355  c0-4.565-3.694-8.258-8.258-8.258c-4.564,0-8.258,3.694-8.258,8.258v54.388l-18.935-18.935c-3.226-3.226-8.452-3.226-11.677,0  c-3.226,3.226-3.226,8.452,0,11.677l30.613,30.613V305.55c0,4.565,3.694,8.258,8.258,8.258c4.564,0,8.258-3.694,8.258-8.258V160.324  l22.355-22.355C289.837,134.743,289.837,129.517,286.612,126.291z" fill="#9c969e"/><g><circle cx="140" cy="396" r="16" fill="#99e9df"/><circle cx="371" cy="396" r="16" fill="#99e9df"/></g><rect x="247px" y="305px" width="16px" height="181px" fill="#c9c6ca"/><circle cx="255" cy="495" r="16" fill="#4bd7c8"/><path d="M396.385,313.807H115.611c-4.565,0-8.258-3.694-8.258-8.258c0-4.565,3.694-8.258,8.258-8.258h280.774  c4.565,0,8.258,3.694,8.258,8.258C404.643,310.114,400.951,313.807,396.385,313.807z" fill="#99e9df"/></g><g transform="matrix(0.1171872690320015 0 0 0.1171872690320015 208 236)" id="L1_47"><path d="M445.935,189.936c0-108.915-91.674-196.418-202.069-189.558  C147.661,6.358,70.065,85.844,66.22,182.159c-2.977,74.587,37.085,140.085,97.358,173.718  c21.168,11.812,34.615,33.799,34.615,58.039v40.278c0,13.682,11.092,24.774,24.774,24.774h66.064  c13.682,0,24.774-11.092,24.774-24.774v-40.267c0-24.311,13.564-46.276,34.782-58.144  C406.667,323.299,445.935,261.212,445.935,189.936z" fill="#edebed"/><path d="M280.774,454.954c-13.682,0-24.774-11.092-24.774-24.774v-48.537  c0-24.24-13.447-46.227-34.615-58.039c-60.274-33.633-100.335-99.13-97.358-173.718c2.233-55.941,29.446-106.083,70.634-139.564  c-72.223,24.936-125.279,92.65-128.44,171.837c-2.977,74.587,37.085,140.085,97.358,173.718  c21.168,11.812,34.615,33.799,34.615,58.039v40.279c0,13.682,11.092,24.774,24.774,24.774h66.064  c13.422,0,24.287-10.692,24.698-24.015H280.774z" fill="#dbd9dc"/><path d="M222.968,471.47l5.565,27.312c1.567,7.693,8.333,13.219,16.183,13.219h22.567  c7.85,0,14.616-5.526,16.184-13.218l5.565-27.312h-66.064V471.47z" fill="#867e88"/><g><path d="M256,346.841c-4.565,0-8.258-3.694-8.258-8.258v-16.516c0-4.565,3.694-8.258,8.258-8.258   s8.258,3.694,8.258,8.258v16.516C264.258,343.148,260.565,346.841,256,346.841z" fill="#c9c6ca"/><path d="M222.976,346.841c-3.032,0-5.944-1.669-7.395-4.565l-8.258-16.516   c-2.04-4.081-0.387-9.04,3.694-11.081c4.081-2.024,9.032-0.387,11.081,3.694l8.258,16.516c2.04,4.081,0.387,9.04-3.694,11.081   C225.476,346.559,224.218,346.841,222.976,346.841z" fill="#c9c6ca"/><path d="M289.024,346.841c-1.242,0-2.5-0.282-3.685-0.871c-4.081-2.04-5.734-7-3.694-11.081l8.258-16.516   c2.048-4.081,7-5.718,11.081-3.694c4.081,2.04,5.734,7,3.694,11.081l-8.258,16.516   C294.968,345.172,292.057,346.841,289.024,346.841z" fill="#c9c6ca"/></g><path d="M243.867,0.379C147.66,6.358,70.065,85.844,66.22,182.159c-1.58,39.596,9.059,76.569,28.322,107.634  h322.961c17.988-29.018,28.433-63.202,28.433-99.856C445.935,81.021,354.262-6.482,243.867,0.379z" fill="#ccf3ff"/><g><path d="M139.592,116.124c-3.597,0.414-6.539,3.356-6.953,6.953c-2.887,25.101,6.502,52.886,27.606,73.99   s48.889,30.493,73.99,27.606c3.597-0.414,6.539-3.356,6.953-6.953c2.887-25.101-6.502-52.886-27.606-73.99   S164.693,113.237,139.592,116.124z" fill="#4bd7c8"/><path d="M379.361,123.077c-0.414-3.597-3.356-6.539-6.953-6.953c-25.101-2.887-52.886,6.502-73.99,27.606   s-30.493,48.889-27.606,73.99c0.414,3.597,3.356,6.539,6.953,6.953c25.101,2.887,52.886-6.502,73.99-27.606   C372.859,175.962,382.248,148.178,379.361,123.077z" fill="#4bd7c8"/></g><path d="M332.032,163.454c-3.226-3.226-8.452-3.226-11.677,0L256,227.809l-64.355-64.355  c-3.226-3.226-8.452-3.226-11.677,0c-3.226,3.226-3.226,8.452,0,11.677l67.774,67.774v46.129h16.516v-46.129l67.774-67.774  C335.258,171.906,335.258,166.68,332.032,163.454z" fill="#00afa0"/><path d="M124.026,149.886c2.233-55.941,29.446-106.083,70.634-139.564  c-72.223,24.936-125.279,92.65-128.44,171.837c-1.58,39.596,9.059,76.569,28.322,107.634h82.974  C142.689,253.89,121.853,204.343,124.026,149.886z" fill="#99e7ff"/><path d="M198.176,413.664c0.001,0.085,0.018,0.167,0.018,0.252v40.279c0,13.682,11.092,24.774,24.774,24.774  h66.064c13.682,0,24.774-11.092,24.774-24.774v-40.267c0-0.089,0.018-0.174,0.018-0.264H198.176z" fill="#b7b2b8"/><path d="M198.194,454.195c0,13.682,11.092,24.774,24.774,24.774h66.064c13.682,0,24.774-11.092,24.774-24.774  v-7.498H256v-33.032h-57.824c0.001,0.085,0.018,0.167,0.018,0.252V454.195z" fill="#aea8af"/><path d="M313.806,454.196H198.194c-4.565,0-8.258-3.694-8.258-8.258s3.694-8.258,8.258-8.258h115.613  c4.565,0,8.258,3.694,8.258,8.258S318.371,454.196,313.806,454.196z" fill="#9c969e"/></g><g transform="matrix(0.1171875 0 0 0.1171875 212 315)" id="L1_48"><circle cx="255" cy="256" r="192" fill="#ccf3ff"/><path d="M86.177,86.297C131.505,40.969,191.771,16,255.88,16c56.588,0,110.164,19.479,153.132,55.217  l-19.804-4.936c-4.336-1.055-8.641,1.547-9.703,5.828c-1.063,4.289,1.547,8.633,5.828,9.703l54.125,13.484  c0.648,0.156,1.297,0.234,1.938,0.234c2.359,0,4.633-1.047,6.172-2.914c1.961-2.383,2.383-5.68,1.078-8.469l-23.609-50.539  c-1.875-4.008-6.625-5.719-10.633-3.867c-4.008,1.875-5.734,6.633-3.867,10.633l8.634,18.481C373.346,20.762,316.219,0,255.88,0  C187.497,0,123.216,26.633,74.865,74.984c-85.063,85.055-99.234,219.844-33.703,320.508c1.531,2.352,4.094,3.633,6.711,3.633  c1.492,0,3.008-0.422,4.359-1.297c3.703-2.406,4.75-7.367,2.336-11.07C-6.862,292.398,6.427,166.039,86.177,86.297z" fill="#c9c6ca"/><path d="M232.105,405.259l125.442-155.691c3.458-4.292,0.486-10.686-5.024-10.81l-92.434-2.07l27.492-126.155  c1.014-4.654-4.936-7.501-7.925-3.793L154.215,262.43c-3.458,4.292-0.486,10.686,5.024,10.81l92.434,2.071l-27.492,126.155  C223.167,406.12,229.117,408.968,232.105,405.259z" fill="#99e9df"/><path d="M425.036,33.609c-1.875-4.008-6.625-5.719-10.633-3.867c-4.008,1.875-5.734,6.633-3.867,10.633  l8.634,18.481c-18.094-15.041-37.955-27.367-59.076-36.791c-3.65-1.629-7.954-0.188-10.043,3.22  c-0.028,0.046-0.056,0.092-0.085,0.138c-2.495,4.087-0.653,9.371,3.72,11.324c19.78,8.833,38.382,20.377,55.326,34.47l-19.804-4.936  c-4.336-1.055-8.641,1.547-9.703,5.828c-1.063,4.289,1.547,8.633,5.828,9.703l54.125,13.484c0.648,0.156,1.297,0.234,1.938,0.234  c2.359,0,4.633-1.047,6.172-2.914c1.961-2.383,2.383-5.68,1.078-8.469L425.036,33.609z" fill="#b7b2b8"/><path d="M425.822,425.703C380.493,471.031,320.228,496,256.118,496c-56.588,0-110.164-19.479-153.132-55.217  l19.804,4.936c4.336,1.055,8.641-1.547,9.703-5.828c1.063-4.289-1.547-8.633-5.828-9.703L72.54,416.704  c-0.648-0.156-1.297-0.234-1.938-0.234c-2.359,0-4.633,1.047-6.172,2.914c-1.961,2.383-2.383,5.68-1.078,8.469l23.609,50.539  c1.875,4.008,6.625,5.719,10.633,3.867c4.008-1.875,5.734-6.633,3.867-10.633l-8.634-18.481  C138.654,491.238,195.781,512,256.118,512c68.383,0,132.664-26.633,181.016-74.984c85.063-85.055,99.234-219.844,33.703-320.508  c-1.531-2.352-4.094-3.633-6.711-3.633c-1.492,0-3.008,0.422-4.359,1.297c-3.703,2.406-4.75,7.367-2.336,11.07  C518.861,219.602,505.572,345.961,425.822,425.703z" fill="#c9c6ca"/><path d="M86.962,478.391c1.875,4.008,6.625,5.719,10.633,3.867c4.008-1.875,5.734-6.633,3.867-10.633  l-8.634-18.481c18.094,15.041,37.955,27.367,59.076,36.791c3.65,1.629,7.954,0.188,10.043-3.22c0.028-0.046,0.056-0.092,0.085-0.138  c2.495-4.087,0.653-9.371-3.72-11.324c-19.78-8.833-38.381-20.377-55.326-34.47l19.804,4.936c4.336,1.055,8.641-1.547,9.703-5.828  c1.063-4.289-1.547-8.633-5.828-9.703L72.54,416.704c-0.648-0.156-1.297-0.234-1.938-0.234c-2.359,0-4.633,1.047-6.172,2.914  c-1.961,2.383-2.383,5.68-1.078,8.469L86.962,478.391z" fill="#b7b2b8"/><path d="M224.146,402.223l73.195-121.991c6.399-10.664-1.283-24.232-13.72-24.232h-48.681  c-12.17,0-19.884-13.047-14.019-23.711l66.458-120.833l0.201-0.923c1.014-4.653-4.937-7.501-7.925-3.792l-125.442,155.69  c-3.458,4.292-0.486,10.686,5.024,10.81l92.434,2.071l-27.646,126.864C224.23,402.256,223.941,402.142,224.146,402.223z" fill="#4bd7c8"/></g><g transform="matrix(0.1171875 0 0 0.1171875 243 140)" id="L1_49"><path d="M437.677,235.355v-16.516h-33.032v-41.29c0-22.766-18.524-41.29-41.29-41.29h-214.71  c-22.766,0-41.29,18.524-41.29,41.29v41.29H74.323v16.516h33.032v66.064H74.323v16.516h33.032v41.29  c0,22.766,18.524,41.29,41.29,41.29h214.71c22.766,0,41.29-18.524,41.29-41.29v-41.29h33.032v-16.516h-33.032v-66.064  L437.677,235.355L437.677,235.355z M388.129,359.226c0,13.661-11.113,24.774-24.774,24.774h-214.71  c-13.661,0-24.774-11.113-24.774-24.774V177.548c0-13.661,11.113-24.774,24.774-24.774h74.323v49.548h16.516v-49.548h33.032v49.548  h16.516v-49.548h74.323c13.661,0,24.774,11.113,24.774,24.774V359.226z" fill="#b7b2b8"/><g><rect x="222px" y="152px" width="16px" height="24px" fill="#9c969e"/><rect x="272px" y="152px" width="16px" height="24px" fill="#9c969e"/></g><rect x="189px" y="194px" width="132px" height="189px" fill="#867e88"/><g><rect x="74px" y="218px" width="24px" height="16px" fill="#9c969e"/><rect x="74px" y="301px" width="24px" height="16px" fill="#9c969e"/><rect x="412px" y="218px" width="24px" height="16px" fill="#9c969e"/><rect x="412px" y="301px" width="24px" height="16px" fill="#9c969e"/><path d="M330.323,417.032H181.677c-4.561,0-8.258-3.697-8.258-8.258v-33.032   c0-4.561,3.697-8.258,8.258-8.258h148.645c4.561,0,8.258,3.697,8.258,8.258v33.032   C338.581,413.335,334.883,417.032,330.323,417.032z" fill="#9c969e"/><path d="M280.774,161.032h-49.548c-13.682,0-24.774-11.092-24.774-24.774v-16.516   c0-13.682,11.092-24.774,24.774-24.774h49.548c13.682,0,24.774,11.092,24.774,24.774v16.516   C305.548,149.94,294.457,161.032,280.774,161.032z" fill="#9c969e"/></g><path d="M198.194,334.452h-16.516c-4.561,0-8.258-3.697-8.258-8.258V202.323c0-4.561,3.697-8.258,8.258-8.258  h16.516c4.561,0,8.258,3.697,8.258,8.258v123.871C206.452,330.754,202.754,334.452,198.194,334.452z" fill="#6f6571"/><path d="M16.516,350.967l7.354,58.831c0.517,4.133,4.03,7.234,8.194,7.234h18.452  c4.165,0,7.678-3.101,8.194-7.234l7.354-58.831H16.516z" fill="#9c969e"/><path d="M48.425,375.742h14.543l3.097-24.774H16.516l7.354,58.83c0.517,4.133,4.03,7.234,8.195,7.234h9.742  l-3.7-29.602C37.33,381.224,42.17,375.742,48.425,375.742z" fill="#867e88"/><path d="M66.065,359.226H16.516C7.395,359.226,0,351.831,0,342.71V194.065  c0-9.122,7.395-16.516,16.516-16.516h49.548c9.122,0,16.516,7.395,16.516,16.516V342.71  C82.581,351.831,75.186,359.226,66.065,359.226z" fill="#edebed"/><path d="M24.774,342.71V194.065c0-9.122,7.395-16.516,16.516-16.516H16.516  C7.395,177.548,0,184.943,0,194.065V342.71c0,9.121,7.395,16.516,16.516,16.516H41.29C32.169,359.226,24.774,351.831,24.774,342.71z  " fill="#dbd9dc"/><path d="M66.065,177.548H16.516C7.395,177.548,0,184.943,0,194.065v33.032h82.581v-33.032  C82.581,184.943,75.186,177.548,66.065,177.548z" fill="#c9c6ca"/><path d="M41.29,177.548H16.516C7.395,177.548,0,184.943,0,194.065v33.032h24.774v-33.032  C24.774,184.943,32.169,177.548,41.29,177.548z" fill="#b7b2b8"/><path d="M445.935,350.967l7.354,58.831c0.517,4.133,4.03,7.234,8.194,7.234h18.452  c4.165,0,7.678-3.101,8.194-7.234l7.354-58.831H445.935z" fill="#9c969e"/><path d="M477.844,375.742h14.543l3.097-24.774h-49.548l7.354,58.83c0.517,4.133,4.03,7.234,8.195,7.234h9.742  l-3.7-29.602C466.75,381.224,471.589,375.742,477.844,375.742z" fill="#867e88"/><path d="M495.484,359.226h-49.548c-9.122,0-16.516-7.395-16.516-16.516V194.065  c0-9.122,7.395-16.516,16.516-16.516h49.548c9.122,0,16.516,7.395,16.516,16.516V342.71  C512,351.831,504.605,359.226,495.484,359.226z" fill="#edebed"/><path d="M454.194,342.71V194.065c0-9.122,7.395-16.516,16.516-16.516h-24.774  c-9.121,0-16.516,7.394-16.516,16.516V342.71c0,9.121,7.395,16.516,16.516,16.516h24.774  C461.588,359.226,454.194,351.831,454.194,342.71z" fill="#dbd9dc"/><path d="M495.484,177.548h-49.548c-9.121,0-16.516,7.394-16.516,16.516v33.032H512v-33.032  C512,184.943,504.605,177.548,495.484,177.548z" fill="#c9c6ca"/><path d="M470.71,177.548h-24.774c-9.121,0-16.516,7.394-16.516,16.516v33.032h24.774v-33.032  C454.194,184.943,461.588,177.548,470.71,177.548z" fill="#b7b2b8"/><path d="M330.323,400.516H181.677c-4.561,0-8.258-3.698-8.258-8.258v16.516c0,4.56,3.697,8.258,8.258,8.258  h148.645c4.561,0,8.258-3.698,8.258-8.258v-16.516C338.581,396.819,334.884,400.516,330.323,400.516z" fill="#867e88"/><path d="M189.935,326.194V202.323c0-4.561,3.697-8.258,8.258-8.258h-16.516c-4.561,0-8.258,3.697-8.258,8.258  v123.871c0,4.56,3.697,8.258,8.258,8.258h16.516C193.633,334.452,189.935,330.754,189.935,326.194z" fill="#5d5360"/><path d="M330.323,334.452h-16.516c-4.561,0-8.258-3.697-8.258-8.258V202.323c0-4.561,3.697-8.258,8.258-8.258  h16.516c4.561,0,8.258,3.697,8.258,8.258v123.871C338.581,330.754,334.883,334.452,330.323,334.452z" fill="#6f6571"/><path d="M322.065,326.194V202.323c0-4.561,3.697-8.258,8.258-8.258h-16.516c-4.561,0-8.258,3.697-8.258,8.258  v123.871c0,4.56,3.697,8.258,8.258,8.258h16.516C325.762,334.452,322.065,330.754,322.065,326.194z" fill="#5d5360"/><path d="M297.29,144.516H256c-18.243,0-33.032-14.789-33.032-33.032v-8.258c0-2.485,0.477-4.837,1.158-7.1  c-10.197,3.068-17.674,12.419-17.674,23.616v16.516c0,13.682,11.092,24.774,24.774,24.774h49.548  c11.197,0,20.548-7.477,23.616-17.674C302.127,144.039,299.776,144.516,297.29,144.516z" fill="#867e88"/></g></defs><g fi:class="KUsePattern"><pattern id="pattern_L1_32" width="350" height="350" patternUnits="userSpaceOnUse"><use xlink:href="#L1_32" x="-350" y="-350"/><use xlink:href="#L1_32" x="0" y="-350"/><use xlink:href="#L1_32" x="350" y="-350"/><use xlink:href="#L1_32" x="-350" y="0"/><use xlink:href="#L1_32" x="0" y="0"/><use xlink:href="#L1_32" x="350" y="0"/><use xlink:href="#L1_32" x="-350" y="350"/><use xlink:href="#L1_32" x="0" y="350"/><use xlink:href="#L1_32" x="350" y="350"/></pattern><rect x="0" y="0" width="100%" height="100%" fill="url(#pattern_L1_32)"/></g><g fi:class="KUsePattern"><pattern id="pattern_L1_33" width="350" height="350" patternUnits="userSpaceOnUse"><use xlink:href="#L1_33" x="-350" y="-350"/><use xlink:href="#L1_33" x="0" y="-350"/><use xlink:href="#L1_33" x="350" y="-350"/><use xlink:href="#L1_33" x="-350" y="0"/><use xlink:href="#L1_33" x="0" y="0"/><use xlink:href="#L1_33" x="350" y="0"/><use xlink:href="#L1_33" x="-350" y="350"/><use xlink:href="#L1_33" x="0" y="350"/><use xlink:href="#L1_33" x="350" y="350"/></pattern><rect x="0" y="0" width="100%" height="100%" fill="url(#pattern_L1_33)"/></g><g fi:class="KUsePattern"><pattern id="pattern_L1_34" width="350" height="350" patternUnits="userSpaceOnUse"><use xlink:href="#L1_34" x="-350" y="-350"/><use xlink:href="#L1_34" x="0" y="-350"/><use xlink:href="#L1_34" x="350" y="-350"/><use xlink:href="#L1_34" x="-350" y="0"/><use xlink:href="#L1_34" x="0" y="0"/><use xlink:href="#L1_34" x="350" y="0"/><use xlink:href="#L1_34" x="-350" y="350"/><use xlink:href="#L1_34" x="0" y="350"/><use xlink:href="#L1_34" x="350" y="350"/></pattern><rect x="0" y="0" width="100%" height="100%" fill="url(#pattern_L1_34)"/></g><g fi:class="KUsePattern"><pattern id="pattern_L1_35" width="350" height="350" patternUnits="userSpaceOnUse"><use xlink:href="#L1_35" x="-350" y="-350"/><use xlink:href="#L1_35" x="0" y="-350"/><use xlink:href="#L1_35" x="350" y="-350"/><use xlink:href="#L1_35" x="-350" y="0"/><use xlink:href="#L1_35" x="0" y="0"/><use xlink:href="#L1_35" x="350" y="0"/><use xlink:href="#L1_35" x="-350" y="350"/><use xlink:href="#L1_35" x="0" y="350"/><use xlink:href="#L1_35" x="350" y="350"/></pattern><rect x="0" y="0" width="100%" height="100%" fill="url(#pattern_L1_35)"/></g><g fi:class="KUsePattern"><pattern id="pattern_L1_36" width="350" height="350" patternUnits="userSpaceOnUse"><use xlink:href="#L1_36" x="-350" y="-350"/><use xlink:href="#L1_36" x="0" y="-350"/><use xlink:href="#L1_36" x="350" y="-350"/><use xlink:href="#L1_36" x="-350" y="0"/><use xlink:href="#L1_36" x="0" y="0"/><use xlink:href="#L1_36" x="350" y="0"/><use xlink:href="#L1_36" x="-350" y="350"/><use xlink:href="#L1_36" x="0" y="350"/><use xlink:href="#L1_36" x="350" y="350"/></pattern><rect x="0" y="0" width="100%" height="100%" fill="url(#pattern_L1_36)"/></g><g fi:class="KUsePattern"><pattern id="pattern_L1_37" width="350" height="350" patternUnits="userSpaceOnUse"><use xlink:href="#L1_37" x="-350" y="-350"/><use xlink:href="#L1_37" x="0" y="-350"/><use xlink:href="#L1_37" x="350" y="-350"/><use xlink:href="#L1_37" x="-350" y="0"/><use xlink:href="#L1_37" x="0" y="0"/><use xlink:href="#L1_37" x="350" y="0"/><use xlink:href="#L1_37" x="-350" y="350"/><use xlink:href="#L1_37" x="0" y="350"/><use xlink:href="#L1_37" x="350" y="350"/></pattern><rect x="0" y="0" width="100%" height="100%" fill="url(#pattern_L1_37)"/></g><g fi:class="KUsePattern"><pattern id="pattern_L1_38" width="350" height="350" patternUnits="userSpaceOnUse"><use xlink:href="#L1_38" x="-350" y="-350"/><use xlink:href="#L1_38" x="0" y="-350"/><use xlink:href="#L1_38" x="350" y="-350"/><use xlink:href="#L1_38" x="-350" y="0"/><use xlink:href="#L1_38" x="0" y="0"/><use xlink:href="#L1_38" x="350" y="0"/><use xlink:href="#L1_38" x="-350" y="350"/><use xlink:href="#L1_38" x="0" y="350"/><use xlink:href="#L1_38" x="350" y="350"/></pattern><rect x="0" y="0" width="100%" height="100%" fill="url(#pattern_L1_38)"/></g><g fi:class="KUsePattern"><pattern id="pattern_L1_39" width="350" height="350" patternUnits="userSpaceOnUse"><use xlink:href="#L1_39" x="-350" y="-350"/><use xlink:href="#L1_39" x="0" y="-350"/><use xlink:href="#L1_39" x="350" y="-350"/><use xlink:href="#L1_39" x="-350" y="0"/><use xlink:href="#L1_39" x="0" y="0"/><use xlink:href="#L1_39" x="350" y="0"/><use xlink:href="#L1_39" x="-350" y="350"/><use xlink:href="#L1_39" x="0" y="350"/><use xlink:href="#L1_39" x="350" y="350"/></pattern><rect x="0" y="0" width="100%" height="100%" fill="url(#pattern_L1_39)"/></g><g fi:class="KUsePattern"><pattern id="pattern_L1_40" width="350" height="350" patternUnits="userSpaceOnUse"><use xlink:href="#L1_40" x="-350" y="-350"/><use xlink:href="#L1_40" x="0" y="-350"/><use xlink:href="#L1_40" x="350" y="-350"/><use xlink:href="#L1_40" x="-350" y="0"/><use xlink:href="#L1_40" x="0" y="0"/><use xlink:href="#L1_40" x="350" y="0"/><use xlink:href="#L1_40" x="-350" y="350"/><use xlink:href="#L1_40" x="0" y="350"/><use xlink:href="#L1_40" x="350" y="350"/></pattern><rect x="0" y="0" width="100%" height="100%" fill="url(#pattern_L1_40)"/></g><g fi:class="KUsePattern"><pattern id="pattern_L1_41" width="350" height="350" patternUnits="userSpaceOnUse"><use xlink:href="#L1_41" x="-350" y="-350"/><use xlink:href="#L1_41" x="0" y="-350"/><use xlink:href="#L1_41" x="350" y="-350"/><use xlink:href="#L1_41" x="-350" y="0"/><use xlink:href="#L1_41" x="0" y="0"/><use xlink:href="#L1_41" x="350" y="0"/><use xlink:href="#L1_41" x="-350" y="350"/><use xlink:href="#L1_41" x="0" y="350"/><use xlink:href="#L1_41" x="350" y="350"/></pattern><rect x="0" y="0" width="100%" height="100%" fill="url(#pattern_L1_41)"/></g><g fi:class="KUsePattern"><pattern id="pattern_L1_42" width="350" height="350" patternUnits="userSpaceOnUse"><use xlink:href="#L1_42" x="-350" y="-350"/><use xlink:href="#L1_42" x="0" y="-350"/><use xlink:href="#L1_42" x="350" y="-350"/><use xlink:href="#L1_42" x="-350" y="0"/><use xlink:href="#L1_42" x="0" y="0"/><use xlink:href="#L1_42" x="350" y="0"/><use xlink:href="#L1_42" x="-350" y="350"/><use xlink:href="#L1_42" x="0" y="350"/><use xlink:href="#L1_42" x="350" y="350"/></pattern><rect x="0" y="0" width="100%" height="100%" fill="url(#pattern_L1_42)"/></g><g fi:class="KUsePattern"><pattern id="pattern_L1_43" width="350" height="350" patternUnits="userSpaceOnUse"><use xlink:href="#L1_43" x="-350" y="-350"/><use xlink:href="#L1_43" x="0" y="-350"/><use xlink:href="#L1_43" x="350" y="-350"/><use xlink:href="#L1_43" x="-350" y="0"/><use xlink:href="#L1_43" x="0" y="0"/><use xlink:href="#L1_43" x="350" y="0"/><use xlink:href="#L1_43" x="-350" y="350"/><use xlink:href="#L1_43" x="0" y="350"/><use xlink:href="#L1_43" x="350" y="350"/></pattern><rect x="0" y="0" width="100%" height="100%" fill="url(#pattern_L1_43)"/></g><g fi:class="KUsePattern"><pattern id="pattern_L1_44" width="350" height="350" patternUnits="userSpaceOnUse"><use xlink:href="#L1_44" x="-350" y="-350"/><use xlink:href="#L1_44" x="0" y="-350"/><use xlink:href="#L1_44" x="350" y="-350"/><use xlink:href="#L1_44" x="-350" y="0"/><use xlink:href="#L1_44" x="0" y="0"/><use xlink:href="#L1_44" x="350" y="0"/><use xlink:href="#L1_44" x="-350" y="350"/><use xlink:href="#L1_44" x="0" y="350"/><use xlink:href="#L1_44" x="350" y="350"/></pattern><rect x="0" y="0" width="100%" height="100%" fill="url(#pattern_L1_44)"/></g><g fi:class="KUsePattern"><pattern id="pattern_L1_45" width="350" height="350" patternUnits="userSpaceOnUse"><use xlink:href="#L1_45" x="-350" y="-350"/><use xlink:href="#L1_45" x="0" y="-350"/><use xlink:href="#L1_45" x="350" y="-350"/><use xlink:href="#L1_45" x="-350" y="0"/><use xlink:href="#L1_45" x="0" y="0"/><use xlink:href="#L1_45" x="350" y="0"/><use xlink:href="#L1_45" x="-350" y="350"/><use xlink:href="#L1_45" x="0" y="350"/><use xlink:href="#L1_45" x="350" y="350"/></pattern><rect x="0" y="0" width="100%" height="100%" fill="url(#pattern_L1_45)"/></g><g fi:class="KUsePattern"><pattern id="pattern_L1_47" width="350" height="350" patternUnits="userSpaceOnUse"><use xlink:href="#L1_47" x="-350" y="-350"/><use xlink:href="#L1_47" x="0" y="-350"/><use xlink:href="#L1_47" x="350" y="-350"/><use xlink:href="#L1_47" x="-350" y="0"/><use xlink:href="#L1_47" x="0" y="0"/><use xlink:href="#L1_47" x="350" y="0"/><use xlink:href="#L1_47" x="-350" y="350"/><use xlink:href="#L1_47" x="0" y="350"/><use xlink:href="#L1_47" x="350" y="350"/></pattern><rect x="0" y="0" width="100%" height="100%" fill="url(#pattern_L1_47)"/></g><g fi:class="KUsePattern"><pattern id="pattern_L1_48" width="350" height="350" patternUnits="userSpaceOnUse"><use xlink:href="#L1_48" x="-350" y="-350"/><use xlink:href="#L1_48" x="0" y="-350"/><use xlink:href="#L1_48" x="350" y="-350"/><use xlink:href="#L1_48" x="-350" y="0"/><use xlink:href="#L1_48" x="0" y="0"/><use xlink:href="#L1_48" x="350" y="0"/><use xlink:href="#L1_48" x="-350" y="350"/><use xlink:href="#L1_48" x="0" y="350"/><use xlink:href="#L1_48" x="350" y="350"/></pattern><rect x="0" y="0" width="100%" height="100%" fill="url(#pattern_L1_48)"/></g><g fi:class="KUsePattern"><pattern id="pattern_L1_49" width="350" height="350" patternUnits="userSpaceOnUse"><use xlink:href="#L1_49" x="-350" y="-350"/><use xlink:href="#L1_49" x="0" y="-350"/><use xlink:href="#L1_49" x="350" y="-350"/><use xlink:href="#L1_49" x="-350" y="0"/><use xlink:href="#L1_49" x="0" y="0"/><use xlink:href="#L1_49" x="350" y="0"/><use xlink:href="#L1_49" x="-350" y="350"/><use xlink:href="#L1_49" x="0" y="350"/><use xlink:href="#L1_49" x="350" y="350"/></pattern><rect x="0" y="0" width="100%" height="100%" fill="url(#pattern_L1_49)"/></g></svg>