<svg id="Gradient_Pantone2020" enable-background="new 0 0 430 430" height="512" viewBox="0 0 430 430" width="512" xmlns="http://www.w3.org/2000/svg"><g><path d="m85.5 371 37 16.7 37-16.7-37-16.8z" fill="#597ba1"/><path d="m270.5 287.3-37 16.8 37 16.7-111 50.2 37 16.7 148-66.9z" fill="#597ba1"/><path d="m122.5 320.8-37 16.7 37 16.7 37-16.7z" fill="#597ba1"/><g fill="#0f4c81"><path d="m122.5 387.8 37-16.8-37-16.7z"/><path d="m270.5 287.4v66.9l74-33.4z"/><path d="m122.5 320.9v33.4l37-16.7z"/></g><path d="m344.5 76.8-74-33.5-37 16.8v33.4l-74 33.5v-33.5l-37-16.7-37 16.7v75.3l37 16.7 37-16.7 37 16.7 148-66.9z" fill="#c6d1e0"/><g fill="#0f4c81"><path d="m233.5 60.1v33.4l37-16.7z"/><path d="m85.5 93.5v33.5l37-16.8z"/><path d="m85.5 127v41.8l37 16.7v-41.8z"/><path d="m159.5 127v41.8l37 16.7v-41.8z"/></g><path d="m122.5 110.2 37 16.8v-33.5z" fill="#597ba1"/><path d="m122.5 143.7v41.8l37-16.7v-41.8z" fill="#597ba1"/><path d="m196.5 143.7v41.8l148-66.9v-41.8z" fill="#597ba1"/></g></svg>